<?xml version="1.0" encoding="UTF-8" standalone="no"?>
<svg width="169px" height="78px" viewBox="0 0 169 78" version="1.1" xmlns="http://www.w3.org/2000/svg" xmlns:xlink="http://www.w3.org/1999/xlink">
    <!-- Generator: Sketch 3.8.3 (29802) - http://www.bohemiancoding.com/sketch -->
    <title>Slice 12</title>
    <desc>Created with Sketch.</desc>
    <defs>
        <polygon id="path-1" points="62.502 57.7616 62.502 0.512 0.348 0.512 0.348 57.7616 62.502 57.7616"></polygon>
        <polygon id="path-3" points="0 48.8472 0 78 80.502 78 80.502 0.512 0 0.512 0 48.8472 46.7699 48.8472 46.7699 7.3042 -0.0001 7.3042 -0.0001 48.8472"></polygon>
        <polygon id="path-5" points="0.7382 38 27.4253595 38 27.4253595 0.686 0.7382 0.686"></polygon>
        <path d="M31.5092414,8.16589617 C31.5092393,6.25896038 32.2970156,4.30166139 32.947,3.377 C34.09,1.741 35.796,0.905 37.197,0.905 C38.236,0.905 39.107,1.364 39.459,2.297 C39.904,3.465 39.65,5.791 41.256,9.178 L0.1,74.1 L45.053,14.6664716 L31.5092414,14.6664716 L31.5092414,8.16589622 L31.5092414,8.16589617 Z M31.5092414,8.16589617 C31.5092426,9.27199111 31.7742871,10.3611417 32.485,11.222 C34.252,13.373 35.698,13.709 38.183,14.586 C39.588,15.082 45.053,13.123 45.053,13.123 L0.1,74.1 L31.5092414,8.16589617 Z" id="path-7"></path>
        <polygon id="path-9" points="2.093 1.7661 2.093 0.0251 0.248 0.0251 0.248 1.7661 2.093 1.7661"></polygon>
        <polygon id="path-11" points="0 31 85.093 31 85.093 0.379 0 0.379"></polygon>
        <path d="M2.38861822,5.34420353 C2.36286348,5.34420348 2.349,5.344 2.349,5.344 C2.349,5.344 0.797,4.685 0.918,3.431 C1.024,2.307 1.852,0.987 3.1,0.986 C3.244,0.986 3.393,1.004 3.545,1.041 C5.04,1.398 5.1,1.758 5.1,1.758 L5.696,3.251 C5.696,3.251 5.69965066,3.2819698 5.69965062,3.33658151 L5.69965062,3.33658133 C5.69965042,3.59507509 5.61785931,4.38324485 4.68,4.924 C3.98788617,5.32531731 2.63677468,5.3442026 2.38864499,5.34420353 L2.38861822,5.34420353 L2.38861822,5.34420353 Z" id="path-13"></path>
        <polygon id="path-15" points="9.6113 0.379 0.8453 0.379 0.8453 5.5596 9.6113 5.5596"></polygon>
        <polygon id="path-17" points="0.0152 2 4.1325093 2 4.1325093 0.6055 0.0152 0.6055 0.0152 2"></polygon>
    </defs>
    <g id="Page-1" stroke="none" stroke-width="1" fill="none" fill-rule="evenodd">
        <g transform="translate(87.000000, -2.000000)">
            <g id="Group-30" transform="translate(0.000000, 0.488300)">
                <path d="M50.2539,72.1133 C52.1559,72.0363 57.6149,72.3163 58.6059,72.4163 C59.5999,72.5133 60.2359,72.7283 58.8439,72.9123 C57.0699,73.1463 51.5489,73.0953 51.5489,73.0953 C51.5489,73.0953 47.6249,76.2893 41.9549,77.0003 C35.5859,77.8003 31.4899,77.5663 31.9919,75.7933 C32.3359,74.5773 38.6409,72.8163 43.1169,72.5233 C47.5919,72.2283 48.6389,72.1803 50.2539,72.1133" id="Fill-1" fill="#595757"></path>
                <g id="Group-5" transform="translate(18.000000, 0.000000)">
                    <mask id="mask-2" fill="white">
                        <use xlink:href="#path-1"></use>
                    </mask>
                    <g id="Clip-4"></g>
                    <path d="M61.793,35.8896 L61.498,35.6896 C61.498,35.6896 60.531,35.9496 59.609,36.1386 C58.686,36.3286 57.256,36.5206 56.559,36.6176 C55.856,36.7116 55.215,36.6526 55.215,36.6526 C55.205,36.5256 55.178,36.3946 55.129,36.2656 C54.986,35.8766 54.617,35.3766 53.682,35.2126 C53.412,35.1646 53.135,35.1426 52.854,35.1426 C51.754,35.1426 50.76,35.4976 50.281,35.6976 C49.492,35.9026 47.777,36.4926 46.477,36.7966 L40.645,38.0206 C42.775,36.4396 42.973,34.3706 42.131,32.1846 C41.695,31.0416 40.328,29.4846 39.621,28.2736 C40.176,28.2736 40.648,28.2066 41.477,28.1316 C43.666,27.9346 45.061,26.7206 45.354,25.0446 C45.621,23.5116 44.852,21.8246 43.244,21.2636 C42.193,20.8946 41.572,20.7516 40.734,20.7046 C41.15,20.4746 41.973,19.7296 42.082,19.4516 C42.432,18.5446 42.256,18.0476 42.012,17.6946 C41.434,16.8506 40.318,16.8506 39.84,16.8506 C39.496,16.8506 38.736,16.9456 38.182,17.0846 C37.068,17.3636 35.939,17.8476 34.889,18.2446 C34.648,17.5276 34.352,16.3046 34.189,15.6446 C33.773,13.9746 33.721,13.9186 33.721,11.8296 C33.721,10.4606 34.42,8.8066 34.42,8.8066 C34.42,8.8066 33.941,8.0216 32.977,7.3316 C32.016,6.6476 31.168,6.1566 29.992,5.9046 C28.061,5.4896 26.125,6.8706 26.125,6.8706 L24.768,11.0036 C24.49,9.8686 24.184,7.6176 24.068,6.5486 C24.008,5.9476 23.949,5.3816 23.869,4.8456 C23.516,2.5776 21.621,0.4496 19.266,0.5126 C17.496,0.5586 15.742,1.4156 14.604,2.4626 C11.051,5.7246 9.039,11.0846 12.523,15.6716 C13.719,17.2456 15.938,18.0956 18.156,18.8966 C17.988,19.1386 17.334,19.7296 17.18,19.9666 C16.037,21.7656 15.693,23.5676 15.588,24.4916 C15.248,24.6886 14.943,24.9156 14.676,25.1686 C13.283,26.4906 12.563,27.7716 12.031,28.7096 C11.893,28.9566 11.764,29.1876 11.631,29.3976 C11.5,29.6056 11.406,29.7366 11.338,29.8166 C11.033,29.5576 10.865,28.9956 10.832,28.7636 L8.365,28.9296 C8.369,29.1786 8.428,31.3956 9.607,32.8396 C10.314,33.7066 11.162,34.3276 12.074,34.6696 C11.147,35.6336 10.129,36.7836 9.178,38.0426 L9.125,37.9186 L0.348,42.6326 L0.467,43.4866 C0.486,43.6406 1.002,47.3116 2.369,51.3516 C3.752,55.4256 6.147,57.7616 8.943,57.7616 C9.469,57.7616 10.004,57.6756 10.535,57.5056 C14.297,56.2986 18.897,51.9806 19.092,51.7966 L19.322,51.5776 L19.652,50.5546 C23.496,49.5766 27.373,48.0536 30.762,46.1976 L34.578,52.9166 L35.615,52.4336 C36.031,52.2426 47.561,47.6226 49.363,46.7206 C49.68,46.5646 49.574,46.7966 49.957,47.1156 C50.439,47.4356 50.898,47.5566 51.932,47.5566 C52.123,47.5566 52.447,47.3726 52.672,47.3276 C53.676,47.1266 54.231,46.5266 54.633,46.0876 C54.766,45.9476 54.963,45.7356 55.039,45.7126 C55.049,45.7126 55.086,45.7136 55.152,45.7406 C55.895,45.9996 56.129,46.3676 56.172,46.4546 L56.477,47.8076 L57.596,46.8246 C57.701,46.7336 58.338,45.6086 58.471,44.9116 C58.596,44.2536 58.572,43.7866 58.217,42.9416 C58.031,42.4826 57.057,41.6976 57.08,41.4746 C58.936,40.9686 59.93,40.4876 60.852,39.7856 C61.984,38.9256 62.525,38.0976 62.502,37.2476 C62.486,36.5936 62.109,36.1046 61.793,35.8896" id="Fill-3" fill="#FEFEFE" mask="url(#mask-2)"></path>
                </g>
                <g id="Group-8">
                    <mask id="mask-4" fill="white">
                        <use xlink:href="#path-3"></use>
                    </mask>
                    <g id="Clip-7"></g>
                    <polygon id="Fill-6" fill="#FEFEFE" mask="url(#mask-4)" points="24.5059 17.4102 27.0329 9.5782 27.7949 18.6742 30.9019 14.4722 30.3519 20.8332 38.4549 15.6582 34.4359 22.1962 43.2029 18.1682 34.7029 25.0142 46.7699 24.9722 35.2809 28.2152 46.7699 31.4532 34.7029 31.4142 44.4879 37.6172 33.0289 34.3012 40.1559 42.8612 30.4239 36.5942 34.1949 46.6682 27.1389 38.0632 27.1879 48.6732 23.5019 38.5702 19.6619 48.8472 17.7459 41.3492 13.3609 46.8472 15.7719 37.8302 8.1109 43.6352 14.1449 35.0952 1.2619 39.6432 12.6349 32.3162 2.0219 31.5562 11.7229 28.9712 -0.0001 24.2302 12.6349 24.9902 1.2619 17.6622 13.9729 22.1272 8.8439 14.1252 15.9199 19.9362 13.1369 7.8082 19.8579 18.3632 20.9669 7.3042"></polygon>
                </g>
                <path d="M73.3828,39.4463 C73.3828,39.4463 74.0278,40.3673 74.1718,40.7713 C74.3148,41.1743 74.1188,42.0023 73.8788,42.4453 C73.6408,42.8893 73.2868,43.3673 73.2868,43.3673 C73.2868,43.3673 70.5718,41.0063 71.2658,40.4253 C71.9628,39.8453 73.5018,39.3603 73.5018,39.3603" id="Fill-9" fill="#BF8065"></path>
                <path d="M72.627,37.6074 C72.627,37.6074 72.914,36.2244 71.336,36.0934 C69.949,35.9784 68.393,36.6194 68.393,36.6194 C68.393,36.6194 67.914,36.6834 67.488,36.5664 C66.412,37.6214 65.121,37.9494 63.734,38.3474 L65.633,42.7304 C65.633,42.7304 66.957,42.4674 68.057,44.0374 C69.162,45.6054 68.975,46.7654 70.494,46.4614 C72.059,46.1484 72.154,44.4494 73.449,44.9064 C74.744,45.3624 75.008,46.1604 75.008,46.1604 C75.008,46.1604 75.773,45.4884 75.869,44.6404 C75.975,43.6834 75.275,42.9434 74.106,42.8714 C72.121,42.7464 72.096,41.2184 72.096,41.2184 C72.096,41.2184 77.029,40.5434 78.809,38.7624 C80.734,36.8374 79.387,36.3164 79.387,36.3164 C79.387,36.3164 78.449,36.5844 77.609,36.8064 C76.762,37.0294 74.807,37.3844 74.09,37.4744 C73.383,37.5624 72.627,37.6074 72.627,37.6074" id="Fill-11" fill="#F6BA94"></path>
                <g id="Group-15" transform="translate(32.000000, 40.000000)">
                    <mask id="mask-6" fill="white">
                        <use xlink:href="#path-5"></use>
                    </mask>
                    <g id="Clip-14"></g>
                    <path d="M7.5742,18.125 C7.5742,18.125 5.1072,17.701 2.3202,11.765 C-0.3048,6.164 23.1252,0.686 23.1252,0.686 C23.1252,0.686 27.1602,11.697 27.3982,15.318 C27.6332,18.844 26.3142,21.699 24.5642,24.663 C22.4612,28.221 21.5432,29.402 22.4472,30.984 C23.3492,32.568 25.3862,33.02 25.3862,33.02 C25.3862,33.02 21.9922,33.246 20.1852,32.793 C18.3732,32.34 17.2442,31.66 17.2442,31.66 L17.2442,32.793 L15.8962,32.678 L16.3122,23.209 C16.3122,23.209 14.0802,32.568 13.8552,33.471 C13.6272,34.375 12.1112,34.689 12.1112,34.689 L11.5942,32.793 C11.5942,32.793 11.5942,33.697 8.6542,35.959 C5.7152,38.219 0.7382,37.994 0.7382,37.994 C0.7382,37.994 3.2282,35.959 4.1312,34.15 C5.0352,32.34 5.9392,27.592 6.3922,25.104 C6.8422,22.618 7.5742,18.125 7.5742,18.125" id="Fill-13" fill="#0087B3" mask="url(#mask-6)"></path>
                </g>
                <path d="M22.2578,20.6289 C23.5588,18.5719 25.1558,20.1859 25.1558,21.5409 C25.1558,22.8999 24.9358,24.9219 25.0548,27.3239 C25.1598,29.4249 25.8148,30.9989 25.8148,30.9989 C25.8148,30.9989 26.5368,31.1519 26.8438,30.4859 C27.1488,29.8219 26.8438,29.4219 26.6368,28.6949 C26.4318,27.9789 26.8908,27.0569 27.5078,26.4929 C28.8088,25.3009 30.5818,26.0649 30.5818,26.0649 C30.5818,26.0649 29.2908,27.9059 28.9118,29.6749 C28.5308,31.4569 30.5958,32.2249 30.1268,34.2039 C29.5778,36.5389 27.8478,35.4239 26.5938,36.8789 C25.6098,38.0289 26.6328,39.9169 26.6328,39.9169 L21.0688,41.3899 C21.0688,41.3899 20.9008,40.6259 20.6468,39.7539 C20.4808,39.1949 19.7778,38.9869 19.0078,38.3709 C17.2968,37.0039 16.1618,35.4369 16.1918,33.5589 C16.2438,30.3849 17.9318,28.6429 17.9318,28.6429 C17.9318,28.6429 17.8848,26.9739 18.8028,24.9569 C19.1368,24.2269 19.4338,23.3929 20.0688,22.7539 C20.7328,22.0889 21.5898,22.0679 21.5898,22.0679 C21.5898,22.0679 21.8948,21.1989 22.2578,20.6289" id="Fill-16" fill="#F6BA94"></path>
                <path d="M53.0879,51.3125 C53.0879,51.3125 65.0019,46.5195 66.8089,45.6155 C68.6169,44.7105 68.4529,41.8225 67.4689,40.3585 C66.2109,38.4995 63.9079,38.2345 63.9079,38.2345 L47.4379,41.3635 L53.0879,51.3125 Z" id="Fill-18" fill="#0087B3"></path>
                <path d="M48.7852,54.9961 C48.7852,56.0271 47.3422,56.8651 45.5552,56.8651 C43.7712,56.8651 42.3222,56.0271 42.3222,54.9961 C42.3222,53.9611 43.7712,53.1201 45.5552,53.1201 C47.3422,53.1201 48.7852,53.9611 48.7852,54.9961" id="Fill-20" fill="#FEFEFE"></path>
                <path d="M37.2734,48.0918 C37.2734,48.0918 39.1714,50.5758 40.4864,51.0158 C41.8004,51.4538 43.8474,51.1608 46.7734,48.6778 C49.6994,46.1908 54.0844,40.6368 54.0844,40.6368 L37.2734,48.0918 Z" id="Fill-22" fill="#00577F"></path>
                <path d="M36.2422,50.8965 C36.2422,50.8965 31.6952,55.1915 28.1582,56.3295 C25.4672,57.1915 22.9742,55.1715 21.5412,50.9555 C20.1972,46.9805 19.6912,43.3185 19.6912,43.3185 L26.7912,40.7485 L30.2282,48.4635 L37.9672,45.4885 L36.2422,50.8965 Z" id="Fill-24" fill="#0087B3"></path>
                <path d="M51.0527,18.3965 C51.0527,18.3965 45.5687,16.9905 43.3887,14.0015 C41.2087,11.0135 41.3477,7.5055 40.9707,5.0885 C40.6057,2.7675 37.6897,1.0095 34.3337,3.2935 C31.3187,5.3505 28.4397,10.8845 31.5097,14.9225 C34.5777,18.9605 40.8787,19.2055 44.4317,19.2835 C47.9827,19.3635 51.0527,18.3965 51.0527,18.3965" id="Fill-26" fill="#D23F24"></path>
                <path d="M52.5859,21.2207 C52.5859,21.2207 51.7789,18.3967 51.2149,16.1347 C50.7789,14.3947 50.5219,13.4567 50.6839,11.5197 C50.8179,9.8907 51.2479,8.9337 51.2479,8.9337 C51.2479,8.9337 49.7619,7.2737 47.8589,6.8707 C46.5819,6.6007 45.0899,7.4257 45.0899,7.4257 L43.0589,14.3577 L52.5859,21.2207 Z" id="Fill-28" fill="#D23F24"></path>
            </g>
            <g id="Group-33" transform="translate(0.000000, 4.488300)">
                <mask id="mask-8" fill="white">
                    <use xlink:href="#path-7"></use>
                </mask>
                <g id="Clip-32"></g>
                <path d="M32.947,3.377 C31.92,4.838 30.549,8.877 32.485,11.222 L32.485,11.222 C34.252,13.373 35.698,13.709 38.183,14.586 L38.183,14.586 C39.588,15.082 45.053,13.123 45.053,13.123 L45.053,13.123 C45.053,13.123 42.57,11.954 41.256,9.178 L41.256,9.178 C39.65,5.791 39.904,3.465 39.459,2.297 L39.459,2.297 C39.107,1.364 38.236,0.905 37.197,0.905 L37.197,0.905 C35.796,0.905 34.09,1.741 32.947,3.377" id="Fill-31" mask="url(#mask-8)"></path>
            </g>
            <g id="Group-76" transform="translate(25.000000, 16.488300)">
                <path d="M26.9414,3.6064 C26.9414,3.6064 29.6854,2.3144 31.6274,2.1534 C33.5624,1.9904 34.3714,2.0724 33.9644,3.1234 C33.5624,4.1714 32.0274,5.3824 32.0274,5.3824 C32.0274,5.3824 33.6444,4.9784 35.7424,6.1894 C37.8414,7.4024 37.8414,10.4714 34.2074,11.1174 C30.5744,11.7614 28.9594,11.1174 27.7504,9.0174 C26.5354,6.9174 26.9414,3.6064 26.9414,3.6064" id="Fill-34" fill="#910004"></path>
                <path d="M9.4688,16.2617 C9.4688,16.2617 4.6118,20.1447 1.7128,24.9027 C-1.1832,29.6577 -0.3552,35.4487 8.1248,34.2087 C16.6058,32.9687 25.0858,28.8297 29.4278,24.6937 C33.7738,20.5587 35.0118,19.3167 33.9788,16.6277 C32.9458,13.9377 30.2538,10.0097 30.2538,10.0097 L28.3948,5.8747 L27.0238,4.0097 C27.0238,4.0097 21.5298,0.5367 17.2268,0.9097 C13.6938,1.2147 12.4938,2.6427 11.2268,4.6327 C9.7798,6.9067 9.7798,9.1817 9.7798,9.1817 L9.4688,16.2617 Z" id="Fill-36" fill="#F6BA94"></path>
                <path d="M13.2734,14.7275 C13.2734,14.7275 10.7504,17.5665 9.6604,20.2465 C8.5744,22.9275 10.1994,23.1715 13.4314,20.4905 C16.6544,17.8105 17.3024,16.1645 17.3024,16.1645 L13.2734,14.7275 Z" id="Fill-38" fill="#231815"></path>
                <path d="M16.1699,17.1309 C16.1699,17.1309 13.4839,17.8669 12.1209,18.6819 C11.2889,19.1779 10.7309,19.9769 10.8689,20.8969 C10.9689,21.5859 12.0449,21.2599 13.1489,20.2649 C14.5079,19.0509 16.1699,17.1309 16.1699,17.1309" id="Fill-40" fill="#D23F24"></path>
                <path d="M9.8223,12.0859 C9.8223,12.0859 9.8223,15.5939 10.6973,16.3259 C11.5763,17.0569 11.7243,16.7639 13.0393,16.4729 C14.3533,16.1779 15.5253,15.3029 15.5253,15.3029 L12.3083,11.5019 L9.8223,12.0859" id="Fill-42" fill="#FEFEFE"></path>
                <path d="M12.1074,8.1367 C13.3494,8.1367 14.3534,7.1457 14.3534,5.9217 C14.3534,4.6987 13.3494,3.7047 12.1074,3.7047 C12.0154,3.7047 11.9254,3.7207 11.8344,3.7307 C11.6284,4.0177 11.4274,4.3187 11.2264,4.6327 C10.7014,5.4577 10.3674,6.2827 10.1564,6.9997 C10.5394,7.6747 11.2654,8.1367 12.1074,8.1367" id="Fill-44" fill="#BF8065"></path>
                <path d="M11.2754,13.0547 C11.2754,13.0547 12.2464,16.0407 14.6644,17.5757 C17.0874,19.1107 19.9944,18.2227 22.4704,15.5557 C24.6234,13.2367 24.4354,8.8557 24.4354,8.8557 C24.4354,8.8557 23.8734,10.8747 22.6624,11.5217 C21.4494,12.1657 20.0764,12.1657 18.8674,11.1177 C17.6524,10.0667 16.5234,9.5007 14.8284,9.0997 C13.1304,8.6957 10.1424,8.5337 8.5314,10.0667 C6.9164,11.6017 6.3124,13.0427 5.6814,14.0527 C5.1134,14.9667 4.5454,15.4997 3.6544,14.8557 C2.7654,14.2067 2.6034,12.9177 2.6034,12.9177 C2.6034,12.9177 2.6274,14.9087 3.5644,16.0567 C4.9414,17.7367 6.8804,18.2507 8.6504,17.1757 C11.5294,15.4277 11.2754,13.0547 11.2754,13.0547" id="Fill-46" fill="#D23F24"></path>
                <path d="M21.2676,7.043 C21.2676,6.794 21.5686,6.594 21.9416,6.594 C22.1366,6.594 22.3086,6.649 22.4336,6.736 C22.1606,6.229 21.4866,5.865 20.6836,5.865 C19.6506,5.865 18.8086,6.469 18.8086,7.213 C18.8086,7.959 19.6506,8.563 20.6836,8.563 C21.7166,8.563 22.5486,7.963 22.5566,7.223 C22.4536,7.381 22.2186,7.492 21.9416,7.492 C21.5686,7.492 21.2676,7.29 21.2676,7.043" id="Fill-48" fill="#231815"></path>
                <path d="M15.3965,8.1445 C15.3965,9.3495 14.0565,10.3265 12.4045,10.3265 C10.7535,10.3265 9.4165,9.3495 9.4165,8.1445 C9.4165,6.9395 10.7535,5.9625 12.4045,5.9625 C14.0565,5.9625 15.3965,6.9395 15.3965,8.1445" id="Fill-50" fill="#F6BA94"></path>
                <path d="M32.918,7.6855 C32.918,9.0885 31.727,10.2285 30.254,10.2285 C28.777,10.2285 27.586,9.0885 27.586,7.6855 C27.586,6.2795 28.777,5.1405 30.254,5.1405 C31.727,5.1405 32.918,6.2795 32.918,7.6855" id="Fill-52" fill="#F6BA94"></path>
                <path d="M19.2539,4.167 L22.3519,4.578 C22.3519,4.578 22.3519,3.463 21.2379,3.13 C20.1189,2.795 19.4059,2.609 19.2309,3.016 C18.9959,3.536 19.2539,4.167 19.2539,4.167" id="Fill-54" fill="#231815"></path>
                <polygon id="Fill-56" fill="#910004" points="27.0234 4.0098 28.0934 8.9078 29.8004 8.7798 28.3554 5.4938"></polygon>
                <path d="M23.1738,34.2314 L23.5178,34.1454 L23.2168,33.6494 L23.2128,33.6504 L23.1738,34.2314 Z M23.1308,34.7894 L22.8338,34.8654 L22.9788,33.3824 L23.3028,33.3044 L24.1208,34.5394 L23.8148,34.6194 L23.6558,34.3574 L23.1538,34.4844 L23.1308,34.7894 Z" id="Fill-58" fill="#FEFEFE"></path>
                <path d="M24.2109,34.0723 C24.2309,34.1483 24.3069,34.2813 24.5569,34.2203 C24.6899,34.1853 24.8279,34.1173 24.7949,33.9723 C24.7659,33.8683 24.6559,33.8633 24.5039,33.8683 L24.3559,33.8683 C24.1209,33.8733 23.8969,33.8773 23.8199,33.5783 C23.7809,33.4273 23.8009,33.1403 24.2359,33.0293 C24.6519,32.9233 24.8339,33.1693 24.8769,33.3343 L24.6039,33.4033 C24.5799,33.3443 24.5219,33.2063 24.2729,33.2703 C24.1679,33.2953 24.0489,33.3693 24.0819,33.4923 C24.1059,33.5963 24.1969,33.5973 24.2599,33.5963 L24.6129,33.5933 C24.8049,33.5933 24.9959,33.6273 25.0589,33.8713 C25.1579,34.2793 24.7519,34.4203 24.6329,34.4493 C24.1409,34.5733 23.9819,34.3083 23.9399,34.1403 L24.2109,34.0723 Z" id="Fill-60" fill="#FEFEFE"></path>
                <path d="M25.2871,33.8037 C25.3071,33.8787 25.3791,34.0127 25.6271,33.9507 C25.7601,33.9167 25.9041,33.8477 25.8651,33.7047 C25.8381,33.5967 25.7321,33.5957 25.5781,33.5977 L25.4261,33.6007 C25.1911,33.6037 24.9671,33.6077 24.8911,33.3077 C24.8511,33.1577 24.8711,32.8697 25.3101,32.7617 C25.7261,32.6567 25.9041,32.8987 25.9511,33.0677 L25.6741,33.1327 C25.6561,33.0737 25.5941,32.9357 25.3491,32.9997 C25.2401,33.0277 25.1191,33.0987 25.1541,33.2217 C25.1781,33.3257 25.2731,33.3287 25.3301,33.3277 L25.6831,33.3257 C25.8811,33.3237 26.0661,33.3567 26.1291,33.6017 C26.2341,34.0097 25.8281,34.1507 25.7071,34.1797 C25.2111,34.3057 25.0531,34.0387 25.0161,33.8707 L25.2871,33.8037 Z" id="Fill-62" fill="#FEFEFE"></path>
                <path d="M26.4922,33.3965 L26.8362,33.3105 L26.5352,32.8145 L26.5352,32.8165 L26.4922,33.3965 Z M26.4532,33.9535 L26.1522,34.0285 L26.2972,32.5505 L26.6212,32.4695 L27.4432,33.7055 L27.1332,33.7855 L26.9742,33.5265 L26.4782,33.6505 L26.4532,33.9535 Z" id="Fill-64" fill="#FEFEFE"></path>
                <path d="M28.041,33.002 L28.381,32.916 L28.084,32.44 L28.08,32.44 L28.041,33.002 Z M27.998,33.555 L27.697,33.647 L27.85,32.18 L28.166,32.109 L28.953,33.286 L28.668,33.367 L28.514,33.121 L28.027,33.254 L27.998,33.555 Z" id="Fill-66" fill="#FEFEFE"></path>
                <path d="M29.1543,32.9922 L29.4613,32.9102 C29.5803,32.8752 29.6333,32.8032 29.5993,32.6802 C29.5703,32.5722 29.4703,32.5532 29.3843,32.5742 L29.0643,32.6562 L29.1543,32.9922 Z M29.0113,32.4452 L29.3023,32.3742 C29.3983,32.3492 29.4653,32.2912 29.4373,32.1952 C29.4123,32.0942 29.3363,32.0822 29.2223,32.1052 L28.9353,32.1712 L29.0113,32.4452 Z M28.6333,32.0112 L29.2223,31.8822 C29.5043,31.8202 29.6233,31.9892 29.6623,32.1132 C29.7053,32.2852 29.6293,32.3562 29.5903,32.3922 C29.7423,32.4142 29.8103,32.5222 29.8433,32.6422 C29.8673,32.7402 29.8573,32.8402 29.8143,32.9222 C29.7673,33.0092 29.7183,33.0682 29.4803,33.1372 L28.9683,33.2812 L28.6333,32.0112 Z" id="Fill-68" fill="#FEFEFE"></path>
                <polygon id="Fill-70" fill="#FEFEFE" points="30.1543 32.707 30.6853 32.564 30.7423 32.774 29.9863 32.99 29.6563 31.787 29.8903 31.734"></polygon>
                <path d="M31.0234,32.5098 C31.1344,32.4808 31.2634,32.3598 31.1774,32.0478 C31.0854,31.7368 30.9104,31.6948 30.7944,31.7218 C30.6854,31.7458 30.5464,31.8618 30.6364,32.1818 C30.7284,32.5038 30.9104,32.5408 31.0234,32.5098 M30.7424,31.5218 C30.8714,31.4938 31.2244,31.4848 31.3734,31.9978 C31.5254,32.5168 31.2054,32.6738 31.0824,32.7108 C30.9474,32.7498 30.5704,32.7868 30.4164,32.2368 C30.2694,31.6948 30.6074,31.5508 30.7424,31.5218" id="Fill-72" fill="#FEFEFE"></path>
                <polygon id="Fill-74" fill="#FEFEFE" points="31.9844 32.4219 31.7984 32.4749 31.6794 32.0629 31.1624 31.4629 31.3924 31.4119 31.7164 31.8359 31.7594 31.3329 31.9704 31.2869 31.8714 32.0179"></polygon>
            </g>
        </g>
        <g transform="translate(1.000000, 38.000000)">
            <g id="Group-239" transform="translate(0.000000, 0.621100)">
                <path d="M12.0117,26.2441 C12.0117,26.4271 10.2147,26.5731 7.9997,26.5731 C5.7847,26.5731 3.9907,26.4271 3.9907,26.2441 C3.9907,26.0621 5.7847,25.9151 7.9997,25.9151 C10.2147,25.9151 12.0117,26.0621 12.0117,26.2441 L12.0117,26.2441 Z" id="Fill-1" fill="#7399AC"></path>
                <path d="M6.2676,23.043 L6.6776,25.17 C6.6776,25.17 7.0466,24.613 7.1716,24.256 C7.2966,23.896 7.4606,23.539 7.1856,23.295 C6.9086,23.051 6.2676,23.043 6.2676,23.043" id="Fill-3" fill="#7399AC"></path>
                <path d="M8.4727,22.873 C8.4727,22.873 7.9457,23.226 7.9787,23.746 C8.0117,24.268 8.6347,25.558 8.6347,25.558 C8.6347,25.558 9.0857,24.803 9.0527,24.202 C9.0217,23.602 8.4727,22.873 8.4727,22.873" id="Fill-5" fill="#7399AC"></path>
                <path d="M8.4785,25.2754 C8.4785,25.2754 8.0235,26.2694 8.0215,26.4704 C8.0195,26.6704 8.8145,26.9624 8.8145,26.9624 C8.8145,26.9624 9.3355,26.8884 9.4605,26.6104 C9.5835,26.3314 9.3495,25.9664 9.1525,25.7644 C8.9555,25.5624 8.6795,25.1174 8.6795,25.1174 L8.4785,25.2754 Z" id="Fill-7" fill="#7399AC"></path>
                <path d="M6.7227,24.8496 C6.7227,24.8496 7.0017,24.9746 7.1587,25.2156 C7.3147,25.4576 7.5117,25.6216 7.2307,25.7796 C6.9477,25.9346 6.6267,25.9696 6.5037,26.1286 C6.3827,26.2866 6.3787,26.5266 6.3787,26.5266 L5.4567,26.5936 C5.4567,26.5936 5.3397,26.3926 5.6247,26.0356 C5.9107,25.6786 6.7227,24.8496 6.7227,24.8496" id="Fill-9" fill="#7399AC"></path>
                <polygon id="Fill-11" fill="#7399AC" points="6.9492 25.7734 6.9002 26.4534 6.7522 25.6914"></polygon>
                <polygon id="Fill-13" fill="#7399AC" points="6.0781 22.2393 5.7341 23.9963 9.5351 24.0893 9.2831 22.1243 7.0941 21.2523"></polygon>
                <path d="M6.1836,17.7158 L7.0746,19.6908 L7.8676,17.4198 L10.5816,18.0588 L9.1386,21.0008 L10.2326,22.8968 C10.2326,22.8968 8.9806,23.7208 8.1056,23.2288 C7.2926,22.7688 7.0036,21.9318 7.0036,21.9318 C7.0036,21.9318 6.9516,22.7708 6.4276,23.0848 C5.9026,23.3978 5.2676,23.0278 5.2676,23.0278 L6.1736,21.1588 L4.3296,18.4898 L6.1836,17.7158 Z" id="Fill-15" fill="#231815"></path>
                <path d="M5.375,18.1055 C5.375,18.1055 4.289,18.4495 3.967,18.6855 C3.645,18.9215 4.072,19.7275 4.072,19.7275 L4.615,21.6895 L6.332,20.7695 L6.082,20.0505 L5.033,20.5395 L5.244,18.9445 L5.375,18.1055 Z" id="Fill-17" fill="#01040C"></path>
                <polygon id="Fill-19" fill="#BF7832" points="5.0332 18.1318 9.6402 21.9708 9.9882 21.6208 5.3512 18.0548"></polygon>
                <path d="M9.1953,21.2285 C9.1953,21.2285 9.6133,23.4025 10.4493,23.6525 C11.2853,23.9025 12.3403,23.5805 11.8383,22.4945 C11.3363,21.4065 10.1293,20.7125 10.1293,20.7125 L9.1953,21.2285 Z" id="Fill-21" fill="#BF7832"></path>
                <polygon id="Fill-23" fill="#231815" points="10.5469 17.9922 11.6289 20.7492 11.1739 21.9332 10.3709 21.4812 11.0699 20.6092 9.8149 19.4922"></polygon>
                <path d="M10.2324,21.4102 C10.2324,21.4102 9.7094,21.6892 9.2554,22.1792 C8.8024,22.6672 8.9064,23.3652 9.4294,23.1212 C9.9534,22.8772 10.2324,22.6672 10.2324,22.6672 C10.2324,22.6672 10.2324,23.2252 10.2674,23.4702 C10.3024,23.7132 10.5464,23.8532 10.7554,23.6442 C10.9644,23.4332 11.1734,23.4332 11.1734,23.4332 C11.1734,23.4332 11.2094,23.8182 11.4194,23.7132 C11.6284,23.6082 11.8004,23.1562 11.6624,22.7032 C11.5234,22.2492 11.3474,21.7602 11.3474,21.7602 C11.3474,21.7602 10.9314,21.2382 10.2324,21.4102" id="Fill-25" fill="#F8CDB5"></path>
                <path d="M2,13.959 C2,13.959 1.791,14.414 1.363,14.828 C0.936,15.246 0.428,15.306 0.428,15.306 C0.428,15.306 3.461,15.705 6.619,15.562 C10.031,15.406 13.568,14.847 13.568,14.847 C13.568,14.847 13.146,14.758 12.479,14.293 C11.811,13.827 11.838,13.136 11.838,13.136 L2,13.959 Z" id="Fill-27" fill="#ED8227"></path>
                <path d="M2.1758,11.8086 L3.5388,8.5686 L9.8848,8.6406 L11.5448,11.9396 L12.3068,11.9516 C12.2658,14.7926 9.7778,17.0616 6.7458,17.0196 C3.7148,16.9786 1.2908,14.6386 1.3298,11.7966 L2.1758,11.8086 Z" id="Fill-29" fill="#F8CDB5"></path>
                <path d="M6.5977,13.2578 C6.5977,13.2578 5.5997,11.7808 4.2407,11.5608 C2.8827,11.3378 1.8847,11.7048 1.7497,12.7698 C1.5937,14.0018 3.1547,14.8168 4.7697,14.4228 C6.1117,14.0958 6.5977,13.2578 6.5977,13.2578" id="Fill-31" fill="#BF8065"></path>
                <path d="M3.6328,10.7148 C3.6328,10.7148 4.3198,9.3378 6.5878,9.4418 C8.8558,9.5448 9.8168,10.8198 9.8168,10.8198 L11.7008,10.4198 L10.8418,8.5998 L4.5408,7.8728 L2.7498,10.5078 L3.6328,10.7148 Z" id="Fill-33" fill="#BF8065"></path>
                <path d="M6.7578,13.1592 C6.7578,13.1592 7.7048,11.6502 9.0548,11.3832 C10.4038,11.1152 11.4138,11.4462 11.5858,12.5062 C11.7848,13.7302 10.2498,14.5992 8.6228,14.2622 C7.2718,13.9802 6.7578,13.1592 6.7578,13.1592" id="Fill-35" fill="#BF8065"></path>
                <path d="M8.6543,14.4297 C10.1333,14.7007 11.5023,13.8837 11.2993,12.7817 C11.1213,11.8247 10.2283,11.6527 9.0113,11.9217 C7.7973,12.1937 6.9433,13.4697 6.9433,13.4697 C6.9433,13.4697 7.4253,14.2027 8.6543,14.4297" id="Fill-37" fill="#F8CDB5"></path>
                <path d="M6.7129,13.5654 C6.7129,13.5654 5.7559,12.3674 4.5219,12.2014 C3.2869,12.0344 2.4119,12.2834 2.3149,13.2484 C2.2049,14.3644 3.6409,15.0634 5.0899,14.6674 C6.2949,14.3364 6.7129,13.5654 6.7129,13.5654" id="Fill-39" fill="#F8CDB5"></path>
                <path d="M6.7871,9.3184 C9.4901,9.6404 10.5921,11.4574 10.5921,11.4574 C10.5921,11.4574 11.2601,11.6094 12.0701,11.8294 C12.2381,11.3924 12.3341,10.9244 12.3401,10.4374 C12.3751,7.9394 10.1171,5.6424 7.2671,5.6034 C4.4201,5.5624 2.0601,7.7954 2.0251,10.2944 C2.0231,10.3534 2.7971,10.5454 2.7991,10.6034 C3.2421,9.6234 4.6191,9.0584 6.7871,9.3184" id="Fill-41" fill="#ED8227"></path>
                <path d="M9.623,11.1611 C9.623,11.1611 9.953,11.6501 10.1,12.5701 C10.248,13.4871 10.137,14.2791 10.137,14.2791 C10.137,14.2791 12.189,13.5031 11.809,12.0251 C11.43,10.5501 9.623,11.1611 9.623,11.1611" id="Fill-43" fill="#FEFEFE"></path>
                <path d="M8.998,13.1738 C8.994,13.4478 8.781,13.6678 8.521,13.6658 C8.264,13.6598 8.057,13.4358 8.061,13.1598 C8.064,12.8848 8.277,12.6648 8.537,12.6698 C8.795,12.6738 9.002,12.8978 8.998,13.1738" id="Fill-45" fill="#01040C"></path>
                <path d="M5.5449,13.1836 C5.5409,13.4566 5.3279,13.6776 5.0679,13.6746 C4.8129,13.6716 4.6059,13.4456 4.6089,13.1716 C4.6129,12.8946 4.8259,12.6756 5.0839,12.6796 C5.3419,12.6836 5.5489,12.9086 5.5449,13.1836" id="Fill-47" fill="#01040C"></path>
                <path d="M6.543,15.8359 C6.514,15.8359 6.482,15.8359 6.451,15.8339 C5.231,15.8089 4.441,15.2649 4.408,15.2419 C4.311,15.1719 4.287,15.0369 4.355,14.9399 C4.424,14.8399 4.559,14.8159 4.658,14.8859 C4.666,14.8909 5.379,15.3779 6.461,15.3999 C7.951,15.4249 9.203,14.6069 9.215,14.5989 C9.314,14.5329 9.451,14.5589 9.518,14.6579 C9.584,14.7589 9.557,14.8939 9.457,14.9589 C9.404,14.9959 8.135,15.8359 6.543,15.8359" id="Fill-49" fill="#BF8065"></path>
                <path d="M6.2148,13.2637 C6.2148,13.2637 5.2498,12.1307 4.0628,11.8357 C2.8538,11.5347 1.9508,11.8577 1.8278,12.8207 C1.6858,13.9357 3.1018,14.6727 4.5628,14.3167 C5.7758,14.0227 6.2148,13.2637 6.2148,13.2637 M8.5938,14.1177 C10.0778,14.3377 11.4218,13.4747 11.1778,12.3787 C10.9688,11.4297 10.0468,11.2157 8.8628,11.6017 C7.6488,11.9957 6.8498,13.2177 6.8498,13.2177 C6.8498,13.2177 7.3578,13.9337 8.5938,14.1177 M6.6518,13.6247 C6.6518,13.6247 6.4748,14.1777 5.4898,14.7977 C4.3768,15.4977 2.4628,15.1057 1.6128,14.2987 C0.9378,13.6567 0.3538,12.5997 1.0698,11.2477 C1.7848,9.8977 2.8358,9.9117 4.4568,10.6877 C6.0528,11.4517 6.6188,12.8827 6.6188,12.8827 C6.6188,12.8827 7.0158,11.4317 8.5698,10.4927 C10.1098,9.5627 11.1598,9.4597 11.9938,10.7407 C12.8298,12.0197 12.3458,13.1247 11.7308,13.8267 C10.9608,14.7077 9.0878,15.2737 7.9178,14.6777 C6.8788,14.1517 6.6518,13.6247 6.6518,13.6247" id="Fill-51" fill="#8C3D0E"></path>
                <path d="M1.0762,11.3037 C1.0762,11.3037 0.5552,11.3657 0.2562,11.4257 C-0.0428,11.4867 -0.1128,11.7477 0.2242,11.8987 C0.5602,12.0487 0.9472,12.0857 0.9472,12.0857 L1.0762,11.3037 Z" id="Fill-53" fill="#8C3D0E"></path>
                <path d="M12.1816,11.0937 C12.1816,11.0937 12.7046,11.1247 13.0056,11.1657 C13.3066,11.2097 13.3946,11.4677 13.0666,11.6367 C12.7406,11.8077 12.3556,11.8667 12.3556,11.8667 L12.1816,11.0937 Z" id="Fill-55" fill="#8C3D0E"></path>
                <path d="M6.4922,14.998 C6.6372,15.123 6.8692,15.092 7.0122,14.929 C7.1542,14.765 7.1542,14.53 7.0102,14.405 C6.8652,14.279 6.6332,14.31 6.4902,14.473 C6.3462,14.639 6.3472,14.871 6.4922,14.998" id="Fill-57" fill="#BF8065"></path>
                <path d="M6.582,14.748 C6.978,14.701 7.271,14.421 7.236,14.123 C7.203,13.824 6.852,13.621 6.453,13.668 C6.055,13.715 5.762,13.996 5.797,14.294 C5.832,14.591 6.184,14.795 6.582,14.748" id="Fill-59" fill="#EF845C"></path>
                <path d="M5.7227,20.2168 C5.7227,20.2168 5.7227,19.1758 6.3657,18.6548 C7.0057,18.1318 8.3707,18.0918 7.9297,18.6548 C7.4887,19.2148 7.1657,19.4958 7.1657,19.4958 C7.1657,19.4958 7.5297,19.6168 7.6487,19.8178 C7.7697,20.0198 7.7697,20.1388 7.6487,20.2598 C7.5297,20.3808 7.2867,20.5788 7.2867,20.5788 C7.2867,20.5788 7.4887,20.9808 7.1657,21.1408 C6.8457,21.3028 6.5257,21.1808 6.2027,21.1408 C5.8827,21.1018 5.7227,20.7388 5.7227,20.7388 C5.7227,20.7388 5.6817,20.4978 5.7227,20.2168" id="Fill-61" fill="#F8CDB5"></path>
                <path d="M77.1992,8.9854 C77.1992,8.9854 76.3752,8.6024 76.0232,7.7204 C75.8102,7.1924 75.6402,6.6314 75.6402,6.6314 C75.6402,6.6314 74.9922,6.4554 74.2562,6.8384 C73.8832,7.0314 73.3732,7.6014 73.3732,7.6014 L73.4312,10.5164 C73.4312,10.5164 73.8102,10.0674 74.8752,9.6914 C75.8772,9.3384 77.1992,8.9854 77.1992,8.9854" id="Fill-63" fill="#1494C0"></path>
                <path d="M74.3496,9.7539 C74.3496,9.7539 75.8536,8.8969 76.3886,7.8769 C76.9236,6.8569 76.9236,5.6779 76.9236,5.6779 C76.9236,5.6779 78.5386,5.3059 80.0366,6.5899 C81.1616,7.5549 80.9476,8.5209 80.1426,8.9489 C79.3376,9.3789 78.2656,9.4319 78.2656,9.4319 L74.3496,9.7539 Z" id="Fill-65" fill="#1494C0"></path>
                <path d="M75.2637,9.1953 C75.2637,9.1953 76.0587,8.8843 76.5607,8.2183 C76.9457,7.7093 77.1857,6.9683 77.1857,6.9683 C77.1857,6.9683 77.9157,6.9473 78.7027,7.5433 C79.3277,8.0143 79.5977,8.6113 79.1937,9.0273 C78.9257,9.3043 78.2657,9.3983 78.2657,9.3983 L75.2637,9.1953 Z" id="Fill-67" fill="#005E8B"></path>
                <path d="M73.0625,12.5156 C73.0625,13.0056 72.6425,13.4016 72.1235,13.4016 C71.6055,13.4016 71.1855,13.0056 71.1855,12.5156 C71.1855,12.0276 71.6055,11.6316 72.1235,11.6316 C72.6425,11.6316 73.0625,12.0276 73.0625,12.5156" id="Fill-69" fill="#F8CDB5"></path>
                <path d="M81.1621,12.0879 C81.1621,12.5769 80.7421,12.9729 80.2251,12.9729 C79.7051,12.9729 79.2851,12.5769 79.2851,12.0879 C79.2851,11.5999 79.7051,11.2019 80.2251,11.2019 C80.7421,11.2019 81.1621,11.5999 81.1621,12.0879" id="Fill-71" fill="#F8CDB5"></path>
                <path d="M82.8809,16.6846 C82.8809,16.6846 82.4119,14.9276 83.1149,14.2236 C83.8179,13.5226 84.4019,13.7576 84.4019,13.7576 L84.3259,14.8316 C84.3259,14.8316 84.8989,14.4646 84.8989,15.4036 C84.8989,16.3376 84.3259,16.4086 84.3259,16.4086 L84.2929,17.1446 L83.3499,17.1526 L82.9979,17.6206 L82.6469,17.0356 L82.8809,16.6846 Z" id="Fill-73" fill="#F8CDB5"></path>
                <path d="M76.6836,8.9766 C76.6836,8.9766 77.4416,9.0476 78.1426,9.3086 C78.7126,9.5236 79.2886,10.0156 79.4066,10.7226 C79.5176,11.3816 79.5076,11.6506 80.1756,12.1696 C80.8436,12.6916 82.2556,14.0296 80.9926,14.9196 C79.7306,15.8106 76.7576,16.4806 74.5296,16.0336 C72.3006,15.5876 71.3336,14.0296 72.3746,12.3196 C73.4136,10.6116 74.0836,9.6456 75.0486,9.2736 C76.0156,8.9026 76.1636,8.9026 76.6836,8.9766" id="Fill-75" fill="#F8CDB5"></path>
                <path d="M77.418,12.9902 C77.418,13.3652 77.115,13.6682 76.74,13.6682 C76.367,13.6682 76.064,13.3652 76.064,12.9902 C76.064,12.6172 76.367,12.3142 76.74,12.3142 C77.115,12.3142 77.418,12.6172 77.418,12.9902" id="Fill-77" fill="#BF8065"></path>
                <path d="M81.375,24.4648 C81.375,24.6078 79.555,24.7248 77.311,24.7248 C75.066,24.7248 73.248,24.6078 73.248,24.4648 C73.248,24.3238 75.066,24.2088 77.311,24.2088 C79.555,24.2088 81.375,24.3238 81.375,24.4648" id="Fill-79" fill="#7399AC"></path>
                <path d="M78.9668,10.4053 C78.6818,10.4053 77.9998,10.4583 77.8218,10.9573 C77.5718,11.6603 77.6598,12.3063 78.0798,12.8743 C78.2928,13.1643 78.7348,13.3503 79.2028,13.3503 C79.5408,13.3503 79.8358,13.2523 80.0098,13.0793 C80.5178,12.5673 80.6098,12.0953 80.6328,11.7833 C80.6738,11.2583 80.5818,10.8973 79.9958,10.6173 C79.7268,10.4863 79.3318,10.4053 78.9668,10.4053 M79.2028,13.9143 L79.2028,13.9143 C78.5528,13.9143 77.9468,13.6423 77.6268,13.2083 C77.2578,12.7083 76.9008,11.8793 77.2948,10.7693 C77.5018,10.1793 78.1128,9.8433 78.9668,9.8433 C79.4158,9.8433 79.8928,9.9433 80.2398,10.1103 C81.1618,10.5533 81.2398,11.2273 81.1958,11.8283 C81.1638,12.2273 81.0468,12.8333 80.4058,13.4753 C80.1228,13.7583 79.6968,13.9143 79.2028,13.9143" id="Fill-81" fill="#01040C"></path>
                <path d="M74.9082,10.3516 C74.5452,10.3516 74.1482,10.4316 73.8772,10.5636 C73.2912,10.8436 73.2012,11.2036 73.2402,11.7306 C73.2632,12.0406 73.3532,12.5126 73.8652,13.0256 C74.0392,13.1986 74.3322,13.2976 74.6722,13.2976 C75.1402,13.2976 75.5822,13.1096 75.7952,12.8216 C76.0842,12.4316 76.3632,11.7816 76.0512,10.9036 C75.8732,10.4056 75.1912,10.3516 74.9082,10.3516 M74.6722,13.8596 C74.1782,13.8596 73.7502,13.7046 73.4692,13.4216 C72.9862,12.9396 72.7282,12.3986 72.6812,11.7726 C72.6372,11.2076 72.7052,10.5006 73.6352,10.0566 C73.9822,9.8896 74.4592,9.7896 74.9082,9.7896 C75.7622,9.7896 76.3712,10.1266 76.5802,10.7146 C76.9742,11.8266 76.6172,12.6546 76.2462,13.1546 C75.9262,13.5886 75.3222,13.8596 74.6722,13.8596" id="Fill-83" fill="#01040C"></path>
                <path d="M78.0664,12.4473 C78.0664,12.8283 77.6054,13.1373 77.0354,13.1373 C76.4664,13.1373 76.0054,12.8283 76.0054,12.4473 C76.0054,12.0643 76.4664,11.7543 77.0354,11.7543 C77.6054,11.7543 78.0664,12.0643 78.0664,12.4473" id="Fill-85" fill="#EF845C"></path>
                <path d="M75.1035,13.9346 C75.1035,13.9346 76.5445,13.9056 77.1935,13.9346 C77.8395,13.9626 78.3715,13.9946 78.3715,13.9946 C78.3715,13.9946 78.5195,14.0666 78.3145,14.0946 C78.1075,14.1236 77.9335,14.0376 77.9335,14.0376 C77.9335,14.0376 77.6935,14.9356 77.0745,15.1706 C76.4575,15.4066 76.0625,15.1896 75.7515,14.8766 C75.3695,14.4946 75.1035,13.9346 75.1035,13.9346" id="Fill-87" fill="#01040C"></path>
                <path d="M75.6328,14.1113 C75.6328,14.1113 75.9278,14.0823 76.4278,14.0823 L77.3108,14.0823 C77.3108,14.0823 77.3108,14.3763 77.1058,14.6113 C76.8988,14.8453 76.6938,14.8453 76.5158,14.7003 C76.3398,14.5523 76.2228,14.2593 76.2228,14.2593 C76.2228,14.2593 76.1638,14.5523 76.0158,14.6703 C75.8688,14.7883 75.6918,14.7303 75.6058,14.5523 C75.5158,14.3763 75.6328,14.1113 75.6328,14.1113" id="Fill-89" fill="#FEFEFE"></path>
                <path d="M78.873,17.3477 C78.873,17.3477 79.682,18.0187 80.728,17.5707 C81.4,17.2817 82.057,16.5817 82.057,16.5817 L82.531,18.2497 C82.531,18.2497 82.248,18.6947 81.855,18.8887 C81.391,19.1177 80.773,19.3227 79.846,19.1567 C78.918,18.9907 78.873,17.3477 78.873,17.3477" id="Fill-91" fill="#1494C0"></path>
                <path d="M75.8672,18.8145 L75.8792,18.9575 L77.3922,18.6305 L77.3852,18.5755 L75.8672,18.8145 Z M75.7242,19.1665 L75.6812,18.6705 L77.5332,18.3785 L77.5842,18.7655 L75.7242,19.1665 Z" id="Fill-93" fill="#006E35"></path>
                <path d="M80.3086,19.0039 C79.4546,17.7339 78.9996,17.4239 78.9996,17.4239 C78.9996,17.4239 78.8356,17.2939 78.5336,17.1059 L78.6216,18.1109 L76.1956,16.5889 C76.1156,16.5689 76.0466,16.5509 75.9906,16.5339 C75.3396,16.3559 74.9606,16.3459 74.4376,16.5599 C74.3206,16.6079 74.2146,16.6659 74.1216,16.7269 C73.4786,17.0919 73.0936,17.6459 73.2286,18.1129 C73.3186,18.4259 73.5956,18.7129 73.5956,18.7129 L73.2466,20.4279 L74.9026,20.5679 L74.9336,20.6579 L74.0606,24.5549 L75.2966,24.5219 L76.6656,22.9179 L78.1676,22.7039 L77.8336,24.4159 L78.3716,24.4429 L78.3396,24.2129 C78.3396,24.2129 78.5666,24.5449 78.9826,24.5649 C79.3436,24.5799 79.9026,24.4839 79.9026,24.4839 C79.9026,24.4839 79.5316,24.3639 79.4236,24.1809 C79.1956,23.7919 79.6346,23.1579 80.1386,22.2989 C80.7756,21.2039 81.1626,20.2749 80.3086,19.0039" id="Fill-95" fill="#1494C0"></path>
                <path d="M79.9004,20.501 C79.8984,20.746 79.6384,20.941 79.3184,20.938 C79.0004,20.934 78.7464,20.731 78.7484,20.486 C78.7524,20.242 79.0114,20.046 79.3304,20.05 C79.6484,20.054 79.9024,20.255 79.9004,20.501" id="Fill-97" fill="#FEFEFE"></path>
                <path d="M79.332,18.9717 C79.318,19.1777 79.078,19.3257 78.797,19.3057 C78.516,19.2847 78.299,19.1037 78.314,18.8987 C78.328,18.6947 78.568,18.5437 78.85,18.5647 C79.131,18.5837 79.348,18.7657 79.332,18.9717" id="Fill-99" fill="#FEFEFE"></path>
                <polygon id="Fill-101" fill="#FEFEFE" points="73.3613 18.6836 74.8413 18.7366 73.3553 19.0856"></polygon>
                <path d="M75.5117,20.6543 C75.5117,20.6543 75.5587,21.2993 75.3827,21.7483 C75.2067,22.1933 74.9607,22.4083 74.7657,22.0953 C74.5687,21.7803 74.4997,21.5453 74.4997,21.5453 C74.4997,21.5453 74.4917,21.6893 74.2967,21.7913 C74.1037,21.8923 73.9887,21.8653 73.8987,21.7243 C73.8087,21.5823 73.7247,21.4163 73.7247,21.4163 C73.7247,21.4163 73.7347,21.5883 73.5897,21.5803 C73.4457,21.5703 73.3187,21.5903 73.2657,21.2853 C73.2147,20.9793 73.2947,20.4253 73.2947,20.4253 L75.5117,20.6543 Z" id="Fill-103" fill="#F8CDB5"></path>
                <polygon id="Fill-105" fill="#005E8B" points="76.9258 17.0215 75.2248 18.0475 76.9868 17.2855"></polygon>
                <polygon id="Fill-107" fill="#005E8B" points="78.5586 18.2441 77.0056 17.7891 76.8536 17.1761 75.5036 18.0601 75.3456 17.8221 77.0336 16.7161 77.2446 17.5621 78.6366 17.9711"></polygon>
                <g id="Group-111" transform="translate(83.000000, 13.000000)">
                    <mask id="mask-10" fill="white">
                        <use xlink:href="#path-9"></use>
                    </mask>
                    <g id="Clip-110"></g>
                    <path d="M0.248,1.1641 L1.555,0.0251 C1.555,0.0251 2.459,0.7271 1.924,1.1961 C1.387,1.6661 0.852,1.7661 0.852,1.7661 L0.248,1.1641 Z" id="Fill-109" fill="#F8CDB5" mask="url(#mask-10)"></path>
                </g>
                <path d="M83.8906,14.5322 C83.8906,14.5322 84.2926,14.8672 84.3616,15.2692 C84.4276,15.6702 84.3946,16.0392 84.0586,16.3062 C83.7246,16.5752 83.5216,16.5752 83.5216,16.5752 L83.4906,14.9672 L83.8906,14.5322 Z" id="Fill-112" fill="#F8CDB5"></path>
                <path d="M75.7988,11.8994 C75.7988,12.1674 75.5818,12.3824 75.3148,12.3824 C75.0488,12.3824 74.8318,12.1674 74.8318,11.8994 C74.8318,11.6324 75.0488,11.4174 75.3148,11.4174 C75.5818,11.4174 75.7988,11.6324 75.7988,11.8994" id="Fill-114" fill="#01040C"></path>
                <path d="M78.748,11.8994 C78.748,12.1674 78.533,12.3824 78.266,12.3824 C78,12.3824 77.783,12.1674 77.783,11.8994 C77.783,11.6324 78,11.4174 78.266,11.4174 C78.533,11.4174 78.748,11.6324 78.748,11.8994" id="Fill-116" fill="#01040C"></path>
                <polygon id="Fill-118" fill="#01040C" points="72.8398 11.4609 72.8108 13.5099 72.2248 13.4509 72.5758 11.8129 72.4568 11.6949"></polygon>
                <path d="M32.1465,19.2139 L31.6255,20.6749 C31.6255,20.6749 31.8865,21.8749 32.0935,22.2909 C32.3025,22.7089 33.1265,23.5669 33.1265,23.5669 L33.4515,22.7089 C33.4515,22.7089 33.4495,21.4549 33.1895,20.9859 C32.9295,20.5179 32.6675,20.4139 32.6675,20.4139 L32.9805,19.7349 L32.1465,19.2139 Z" id="Fill-120" fill="#F8CDB5"></path>
                <path d="M62.2539,26.3066 C62.2539,26.4976 64.1489,26.6526 66.4829,26.6526 C68.8179,26.6526 70.7109,26.4976 70.7109,26.3066 C70.7109,26.1136 68.8179,25.9576 66.4829,25.9576 C64.1489,25.9576 62.2539,26.1136 62.2539,26.3066" id="Fill-122" fill="#7399AC"></path>
                <path d="M61.3457,22.1152 L60.9337,23.0312 C60.9337,23.0312 60.8617,23.7132 61.2967,24.0392 C61.7347,24.3652 62.0877,24.3302 62.0917,24.0332 C62.0957,23.7362 61.9077,23.4042 61.9077,23.4042 C61.9077,23.4042 61.9767,23.5672 62.2827,23.5212 C62.5877,23.4782 62.5917,23.1812 62.4907,22.9162 C62.3907,22.6502 62.3067,22.2882 62.3067,22.2882 L61.3457,22.1152 Z" id="Fill-124" fill="#F8CDB5"></path>
                <path d="M59.3984,12.7197 C59.3984,12.8667 59.2834,12.9857 59.1424,12.9857 C59.0004,12.9857 58.8844,12.8667 58.8844,12.7197 C58.8844,12.5737 59.0004,12.4547 59.1424,12.4547 C59.2834,12.4547 59.3984,12.5737 59.3984,12.7197" id="Fill-126" fill="#DD7321"></path>
                <polygon id="Fill-128" fill="#D6B47F" points="70.7578 17.0264 71.1488 22.3414 67.1578 22.2794 67.2068 19.4034"></polygon>
                <path d="M71.5371,19.5137 C71.5371,19.5137 71.4391,19.1247 71.9281,18.8317 C72.4161,18.5377 72.8071,19.0767 72.5141,19.5627 C72.2211,20.0507 71.5371,19.5137 71.5371,19.5137" id="Fill-130" fill="#D84520"></path>
                <path d="M69.5879,22.709 C69.5879,22.709 69.1699,23.168 68.7769,23.118 C68.3889,23.07 68.3949,22.738 68.3949,22.738 C68.3949,22.738 68.2699,23.246 67.9789,22.904 C67.6859,22.563 67.7109,22.158 67.8579,21.867 C68.0039,21.574 68.5139,21.197 68.8069,21.49 C69.0999,21.783 69.5879,22.709 69.5879,22.709" id="Fill-132" fill="#F8CDB5"></path>
                <path d="M70.5898,22.3398 C70.5898,22.3398 70.7578,22.8788 70.3668,23.0738 C69.9768,23.2698 69.3438,23.7078 69.1968,23.0258 C69.0508,22.3418 69.0898,22.0008 69.2458,21.6108 C69.3848,21.2668 69.7948,21.1308 69.9528,21.5508 C70.1128,21.9748 70.2378,22.3228 70.2378,22.3228 L70.5898,22.3398 Z" id="Fill-134" fill="#F8CDB5"></path>
                <polygon id="Fill-136" fill="#FEFEFE" points="66.4648 17.8066 65.3928 19.5626 64.4178 17.7106 62.6128 18.4416 63.1798 20.8436 62.7068 23.0896 68.0738 23.1716 67.3438 20.9756 67.8318 18.6356"></polygon>
                <path d="M62.9551,22.7813 C62.9551,22.7813 62.9531,23.5623 63.2481,24.1463 C63.5491,24.7473 63.6601,25.1543 63.5881,25.5613 C63.5211,25.9483 63.0331,26.4063 63.0331,26.4063 L65.1971,26.3413 L65.2461,25.5133 L65.5881,26.3413 L66.3691,26.3413 L66.4671,26.0013 C66.4671,26.0013 67.4411,26.4383 67.8811,26.4883 C68.3201,26.5363 68.7091,26.5363 68.7091,26.5363 C68.7091,26.5363 68.0741,26.3413 67.6851,25.9513 C67.2951,25.5613 67.0021,24.6343 67.1001,24.0973 C67.1971,23.5623 67.1971,22.8793 67.1971,22.8793 L62.9551,22.7813 Z" id="Fill-138" fill="#FEFEFE"></path>
                <path d="M63.0703,18.0078 C63.0703,18.0078 62.2593,18.0808 61.8533,18.4138 C61.5173,18.6888 61.4743,19.1328 61.7073,19.3328 C61.9653,19.5548 62.3343,19.5168 62.3343,19.5168 L61.0823,21.7288 L62.4433,22.0588 L63.1993,19.7568 L63.0703,18.0078 Z" id="Fill-140" fill="#FEFEFE"></path>
                <path d="M64.7598,21.1709 C64.7598,21.4669 64.9998,21.7079 65.2948,21.7079 C65.5918,21.7079 65.8318,21.4669 65.8318,21.1709 C65.8318,20.8759 65.5918,20.6359 65.2948,20.6359 C64.9998,20.6359 64.7598,20.8759 64.7598,21.1709" id="Fill-142" fill="#FEFEFE"></path>
                <polygon id="Fill-144" fill="#C9DFEC" points="63.041 23.2695 67.117 23.7855 67.148 23.2195 63.01 23.0895"></polygon>
                <polygon id="Fill-146" fill="#8C3D0E" points="70.5234 20.7471 71.0604 21.0991 71.0274 20.7131"></polygon>
                <polygon id="Fill-148" fill="#D84520" points="70.5137 20.7324 71.5367 20.8304 71.3907 18.3924 70.6117 18.8324"></polygon>
                <polygon id="Fill-150" fill="#FEFEFE" points="63.0059 20.1934 63.0219 19.5894 64.5959 19.4664 64.6249 19.8264 64.5159 19.8364 64.5239 20.1604"></polygon>
                <path d="M64.2188,19.5254 L63.9458,19.5254 L63.9768,20.4024 C63.9768,20.4024 63.7948,19.9184 63.7658,19.3754 C63.7348,18.8304 63.8868,18.6504 63.9768,18.8614 C64.0668,19.0724 64.2188,19.5254 64.2188,19.5254" id="Fill-152" fill="#D84520"></path>
                <path d="M63.6426,19.5859 L63.3716,19.5859 L63.4026,20.4609 C63.4026,20.4609 63.2206,19.9779 63.1916,19.4339 C63.1626,18.8909 63.3106,18.7089 63.4026,18.9219 C63.4926,19.1329 63.6426,19.5859 63.6426,19.5859" id="Fill-154" fill="#0087B3"></path>
                <path d="M64.6543,17.75 L65.3163,19.666 L66.1643,17.823 C66.1643,17.823 65.9803,17.935 65.7223,17.971 C65.4653,18.008 65.2423,18.008 65.0213,17.935 C64.8003,17.859 64.6543,17.75 64.6543,17.75" id="Fill-156" fill="#DD7321"></path>
                <path d="M68.4219,13.5 C68.4219,13.5 70.3769,12.163 71.1409,10.876 C71.9039,9.589 71.0449,7.824 68.9939,6.918 C66.9419,6.01 63.4139,5.915 61.4549,7.107 C59.4999,8.301 58.0679,11.115 59.7399,12.211 C61.4079,13.309 62.0289,13.595 62.0289,13.595 C62.0289,13.595 61.3609,11.639 62.9829,10.305 C64.6059,8.969 65.0349,8.157 65.0349,8.157 C65.0349,8.157 66.5629,9.256 67.5159,10.256 C68.4689,11.258 68.4219,13.5 68.4219,13.5" id="Fill-158" fill="#F5A900"></path>
                <path d="M64.9395,7.2988 C64.9395,7.2988 67.2775,9.2068 68.4685,10.3518 C69.6625,11.4958 69.6625,11.8308 68.8515,13.3088 C68.0395,14.7878 66.8065,16.3688 66.4645,16.6968 C65.8205,17.3148 65.3105,17.1758 64.6055,16.7438 C63.8925,16.3088 61.7915,14.5498 61.3145,13.6898 C60.8355,12.8318 61.0275,11.7348 61.6465,10.9238 C62.2675,10.1128 64.9395,7.2988 64.9395,7.2988" id="Fill-160" fill="#F8CDB5"></path>
                <path d="M65.9883,14.3105 C65.9883,14.6265 65.6463,14.8835 65.2243,14.8835 C64.8043,14.8835 64.4613,14.6265 64.4613,14.3105 C64.4613,13.9965 64.8043,13.7385 65.2243,13.7385 C65.6463,13.7385 65.9883,13.9965 65.9883,14.3105" id="Fill-162" fill="#BF8065"></path>
                <path d="M70.7109,12.2109 C70.7109,13.5029 69.5249,14.5499 68.0629,14.5499 C66.6019,14.5499 65.4159,13.5029 65.4159,12.2109 C65.4159,10.9219 66.6019,9.8749 68.0629,9.8749 C69.5249,9.8749 70.7109,10.9219 70.7109,12.2109" id="Fill-164" fill="#D8EAF4"></path>
                <path d="M68.2832,10.1123 C68.2832,10.1123 69.2832,10.1383 69.9722,10.9043 C70.3222,11.2933 70.5412,11.8063 70.5412,12.2613 C70.5392,12.6363 70.3182,13.1253 70.3182,13.1253 C70.3182,13.1253 69.9412,13.0533 69.3062,12.6073 C68.8512,12.2873 68.4692,11.7303 68.3322,11.2143 C68.1602,10.5553 68.2832,10.1123 68.2832,10.1123" id="Fill-166" fill="#FEFEFE"></path>
                <path d="M65.0332,12.498 C65.0332,13.789 63.8472,14.836 62.3872,14.836 C60.9242,14.836 59.7402,13.789 59.7402,12.498 C59.7402,11.207 60.9242,10.161 62.3872,10.161 C63.8472,10.161 65.0332,11.207 65.0332,12.498" id="Fill-168" fill="#D8EAF4"></path>
                <path d="M66.1328,13.7148 C66.1328,14.0698 65.6618,14.3578 65.0818,14.3578 C64.5018,14.3578 64.0308,14.0698 64.0308,13.7148 C64.0308,13.3598 64.5018,13.0708 65.0818,13.0708 C65.6618,13.0708 66.1328,13.3598 66.1328,13.7148" id="Fill-170" fill="#F8CDB5"></path>
                <path d="M67.6113,12.5703 C67.6113,12.8723 67.3653,13.1183 67.0623,13.1183 C66.7573,13.1183 66.5113,12.8723 66.5113,12.5703 C66.5113,12.2663 66.7573,12.0213 67.0623,12.0213 C67.3653,12.0213 67.6113,12.2663 67.6113,12.5703" id="Fill-172" fill="#4C6876"></path>
                <path d="M63.793,12.6641 C63.793,12.9691 63.549,13.2141 63.246,13.2141 C62.941,13.2141 62.697,12.9691 62.697,12.6641 C62.697,12.3611 62.941,12.1171 63.246,12.1171 C63.549,12.1171 63.793,12.3611 63.793,12.6641" id="Fill-174" fill="#4C6876"></path>
                <path d="M65.584,15.8926 C64.971,15.8926 64.33,15.7236 63.83,15.3356 C63.686,15.2246 63.66,15.0166 63.773,14.8716 C63.883,14.7296 64.092,14.7036 64.234,14.8146 C64.941,15.3626 66.125,15.3336 66.711,14.9436 C66.863,14.8416 67.068,14.8836 67.168,15.0356 C67.27,15.1856 67.23,15.3916 67.078,15.4936 C66.697,15.7466 66.152,15.8926 65.584,15.8926" id="Fill-176" fill="#BF8065"></path>
                <path d="M39.7168,27.3428 C39.7168,27.5388 37.7888,27.6968 35.4098,27.6968 C33.0308,27.6968 31.1038,27.5388 31.1038,27.3428 C31.1038,27.1488 33.0308,26.9888 35.4098,26.9888 C37.7888,26.9888 39.7168,27.1488 39.7168,27.3428" id="Fill-178" fill="#7399AC"></path>
                <path d="M33.6406,22.3906 L37.8966,22.2226 C37.8966,22.2226 38.3086,22.8926 38.5336,23.8796 C38.7086,24.6526 38.6816,25.3026 38.6816,25.3026 L38.1776,25.4156 L37.7856,27.4886 L35.4886,27.4886 L32.7426,27.3766 C32.7426,27.3766 33.3026,26.9856 33.3026,26.3676 L33.3026,25.1916 L32.7426,25.0236 C32.7426,25.0236 32.5466,24.0816 32.6676,23.5956 C32.8476,22.8766 33.6406,22.3906 33.6406,22.3906" id="Fill-180" fill="#005E8B"></path>
                <mask id="mask-12" fill="white">
                    <use xlink:href="#path-11"></use>
                </mask>
                <g id="Clip-183"></g>
                <polygon id="Fill-182" fill="#FEFEFE" mask="url(#mask-12)" points="35.209 23.343 36.721 23.343 36.721 22.391 35.209 22.391"></polygon>
                <path d="M39.0703,19.2559 L40.1443,20.5329 C40.1443,20.5329 40.3983,20.4859 40.8433,20.0449 C41.2203,19.6699 41.3713,18.8219 41.3713,18.8219 L41.2303,18.4749 C41.2303,18.4749 40.6643,18.8499 40.4663,19.1469 C40.2713,19.4419 40.3003,19.7489 40.3003,19.7489 L40.2593,19.0999 L39.5413,18.3829 L39.0703,19.2559 Z" id="Fill-184" fill="#BF8065" mask="url(#mask-12)"></path>
                <path d="M41.1465,18.7305 C41.1465,18.7305 40.4805,18.5795 40.3635,18.1295 C40.2325,17.6405 40.4085,17.2425 40.7635,16.9805 C40.9785,16.8225 41.1605,16.7575 41.2815,16.5365 C41.3675,16.3785 41.3845,16.1605 41.3245,15.9915 C41.2515,15.7895 41.0375,15.5595 41.0375,15.5595 C41.0375,15.5595 41.5255,15.3165 41.8265,15.5175 C42.0835,15.6885 42.1365,15.9215 42.1365,16.1405 C42.1425,16.6795 41.6775,16.9645 41.6775,16.9645 L42.6445,16.7945 L42.1855,19.1655 C42.1855,19.1655 41.4825,19.3025 41.1465,19.2605 C40.9215,19.2335 40.8355,19.0765 40.9295,18.9225 C40.9905,18.8205 41.1465,18.7305 41.1465,18.7305" id="Fill-185" fill="#BF8065" mask="url(#mask-12)"></path>
                <path d="M33.6953,21.9414 L38.2343,21.8304 L38.1773,18.8044 L38.8023,19.7074 L39.7893,18.4504 C39.7893,18.4504 38.8493,17.2914 38.4023,17.0114 C37.9533,16.7314 36.5523,16.6754 36.5523,16.6754 C36.5523,16.6754 36.6643,17.1714 36.3123,17.4344 C35.8413,17.7814 35.2163,17.7814 34.9273,17.4034 C34.6683,17.0644 34.8163,16.6194 34.8163,16.6194 L33.0803,17.0664 L31.6253,19.0044 L32.9803,19.9954 L33.3593,19.3654 L33.6953,21.9414 Z" id="Fill-186" fill="#D84520" mask="url(#mask-12)"></path>
                <path d="M43.7285,12.8311 C43.5445,12.6051 43.4335,12.5081 43.7555,12.4851 C44.1285,12.4591 44.3125,12.5121 44.3125,12.5121 L44.5705,11.8911 C44.5705,11.8911 44.4555,11.9051 44.2345,11.6861 C44.0135,11.4691 43.9025,11.3941 43.9585,11.0341 C44.0215,10.6241 44.6855,10.6501 44.6855,10.6501 L44.3925,9.1871 L44.1175,8.9771 L41.5295,15.0431 L42.3145,15.3421 L42.2835,14.9531 L43.0915,15.0381 L43.2615,14.7811 C43.2615,14.7811 43.0915,14.6921 42.9535,14.4711 C42.8735,14.3411 42.8785,14.2941 43.0375,14.2941 C43.1975,14.2941 43.8105,14.4001 43.8105,14.4001 L43.9155,14.0551 L43.4375,13.6021 L43.9435,13.5221 L44.1015,13.2821 C44.1015,13.2821 43.9275,13.0741 43.7285,12.8311" id="Fill-187" fill="#01040C" mask="url(#mask-12)"></path>
                <path d="M40.4375,17.1582 C40.6245,17.5292 40.9585,17.6302 41.3455,17.5922 C41.8655,17.5412 42.0665,17.1382 42.0665,17.1382 L40.4785,16.3582 C40.4785,16.3582 40.2815,16.8452 40.4375,17.1582 M43.3475,16.7952 C43.1465,17.6772 42.1605,18.2032 41.1465,17.9702 C40.1305,17.7382 39.4745,16.8342 39.6755,15.9532 C39.8785,15.0702 40.8655,14.5452 41.8785,14.7762 C42.8925,15.0102 43.5505,15.9122 43.3475,16.7952" id="Fill-188" fill="#01040C" mask="url(#mask-12)"></path>
                <polygon id="Fill-189" fill="#FEFEFE" mask="url(#mask-12)" points="27.9023 15.3027 27.6113 15.0227 29.3493 13.2307 29.6383 13.5117"></polygon>
                <polygon id="Fill-190" fill="#FEFEFE" mask="url(#mask-12)" points="27.6777 14.8545 27.3887 14.5745 29.1247 12.7825 29.4137 13.0625"></polygon>
                <polygon id="Fill-191" fill="#FEFEFE" mask="url(#mask-12)" points="27.5645 14.2393 27.2755 13.9583 29.0115 12.1643 29.3025 12.4463"></polygon>
                <polygon id="Fill-192" fill="#FEFEFE" mask="url(#mask-12)" points="27.3984 13.7344 27.1074 13.4534 28.8434 11.6604 29.1344 11.9414"></polygon>
                <polygon id="Fill-193" fill="#FEFEFE" mask="url(#mask-12)" points="27.1738 13.2871 26.8828 13.0051 28.6208 11.2131 28.9098 11.4931"></polygon>
                <polygon id="Fill-194" fill="#FEFEFE" mask="url(#mask-12)" points="26.9492 12.9502 26.6602 12.6692 28.3962 10.8772 28.6852 11.1562"></polygon>
                <polygon id="Fill-195" fill="#FEFEFE" mask="url(#mask-12)" points="26.7813 12.3906 26.4923 12.1096 28.2283 10.3166 28.5173 10.5976"></polygon>
                <polygon id="Fill-196" fill="#FEFEFE" mask="url(#mask-12)" points="26.7246 11.8848 26.4356 11.6048 28.1716 9.8128 28.4626 10.0938"></polygon>
                <polygon id="Fill-197" fill="#FEFEFE" mask="url(#mask-12)" points="26.5566 11.2695 26.2676 10.9905 28.0036 9.1955 28.2946 9.4755"></polygon>
                <path d="M42.2949,17.1094 C42.2949,17.4744 42.6559,17.7734 43.1059,17.7734 C43.5509,17.7734 43.9139,17.4744 43.9139,17.1094 C43.9139,16.7424 43.5509,16.4454 43.1059,16.4454 C42.6559,16.4454 42.2949,16.7424 42.2949,17.1094" id="Fill-198" fill="#F8CDB5" mask="url(#mask-12)"></path>
                <path d="M41.291,18.04 C41.291,18.381 41.654,18.657 42.102,18.657 C42.549,18.657 42.912,18.381 42.912,18.04 C42.912,17.7 42.549,17.424 42.102,17.424 C41.654,17.424 41.291,17.7 41.291,18.04" id="Fill-199" fill="#F8CDB5" mask="url(#mask-12)"></path>
                <path d="M41.7773,19.0957 C41.8453,19.3257 42.1813,19.4297 42.5273,19.3277 C42.8733,19.2247 43.0973,18.9557 43.0293,18.7267 C42.9613,18.4937 42.6253,18.3907 42.2793,18.4917 C41.9333,18.5957 41.7093,18.8657 41.7773,19.0957" id="Fill-200" fill="#F8CDB5" mask="url(#mask-12)"></path>
                <path d="M40.0781,6.9355 C39.8281,6.3715 39.3831,5.6675 38.8281,4.9995 C38.7931,5.2165 38.6211,5.5935 37.9741,6.0785 C36.9301,6.8615 35.8201,6.9275 34.3851,5.7525 C33.6071,5.1155 33.4431,4.3265 33.4551,3.7385 C33.4141,3.7915 33.3711,3.8515 33.3301,3.9135 C33.3381,4.2725 33.3201,4.7485 33.2281,5.2425 C33.0391,6.2495 32.9761,7.0055 32.2831,7.8265 C31.7851,8.4145 31.2561,8.7085 30.9961,8.8285 C30.7421,9.5195 30.5151,10.2045 30.3381,10.8435 C29.6851,13.1925 30.1051,14.0835 32.6131,15.0585 C34.5921,15.8275 36.6031,15.9985 36.6031,15.9985 C36.6031,15.9985 39.0171,15.1505 40.1271,13.9745 C41.2381,12.8005 41.1891,9.4345 40.0781,6.9355" id="Fill-201" fill="#F8CDB5" mask="url(#mask-12)"></path>
                <path d="M34.3848,5.7529 C35.8208,6.9279 36.9298,6.8609 37.9748,6.0779 C38.6208,5.5939 38.7928,5.2169 38.8298,4.9999 C37.3398,3.2039 35.0388,1.6599 33.4548,3.7379 C33.4438,4.3259 33.6078,5.1149 34.3848,5.7529" id="Fill-202" fill="#D23F24" mask="url(#mask-12)"></path>
                <path d="M32.2832,7.8262 C32.9762,7.0062 33.0392,6.2502 33.2282,5.2422 C33.3202,4.7492 33.3382,4.2722 33.3302,3.9132 C33.3122,3.9392 33.2932,3.9632 33.2752,3.9912 C32.5662,5.0872 31.6792,6.9752 30.9962,8.8282 C31.2562,8.7092 31.7852,8.4142 32.2832,7.8262" id="Fill-203" fill="#D23F24" mask="url(#mask-12)"></path>
                <path d="M40.8594,11.0254 C40.8594,11.0254 41.6404,9.6554 42.0334,9.3284 C42.4254,9.0014 42.8824,9.7194 42.6854,10.3734 C42.4904,11.0254 42.2954,11.2864 41.9024,11.2864 C41.5114,11.2864 40.8594,11.0254 40.8594,11.0254" id="Fill-204" fill="#F8CDB5" mask="url(#mask-12)"></path>
                <path d="M36.7988,11.6582 C36.7988,12.1442 36.2868,12.5392 35.6578,12.5392 C35.0278,12.5392 34.5158,12.1442 34.5158,11.6582 C34.5158,11.1722 35.0278,10.7772 35.6578,10.7772 C36.2868,10.7772 36.7988,11.1722 36.7988,11.6582" id="Fill-205" fill="#BF8065" mask="url(#mask-12)"></path>
                <path d="M36.8066,10.6211 C36.9356,11.0711 36.3966,11.6231 35.5976,11.8531 C34.8026,12.0841 34.0506,11.9051 33.9216,11.4561 C33.7906,11.0061 34.3316,10.4531 35.1266,10.2241 C35.9236,9.9941 36.6756,10.1701 36.8066,10.6211" id="Fill-206" fill="#EF845C" mask="url(#mask-12)"></path>
                <path d="M37.6484,9.7324 L38.5624,9.7324 C38.8884,9.7324 39.2794,9.8654 39.2794,9.8654 C39.2794,9.8654 39.2124,9.2764 38.8884,8.9494 C38.5624,8.6244 38.3674,8.9494 38.1054,9.2114 C37.8434,9.4714 37.6484,9.7324 37.6484,9.7324" id="Fill-207" fill="#01040C" mask="url(#mask-12)"></path>
                <path d="M34.0059,9.9414 L33.0919,9.9414 C32.7659,9.9414 32.3749,10.0724 32.3749,10.0724 C32.3749,10.0724 32.4419,9.4844 32.7659,9.1594 C33.0919,8.8324 33.2889,9.1594 33.5509,9.4204 C33.8109,9.6794 34.0059,9.9414 34.0059,9.9414" id="Fill-208" fill="#01040C" mask="url(#mask-12)"></path>
                <path d="M35.1563,13.752 C34.0843,13.752 32.8203,13.463 31.9943,12.812 L32.2893,12.44 C33.2113,13.166 34.8183,13.388 35.8653,13.226 C37.5253,12.971 38.7483,12.482 39.4983,11.773 L39.8223,12.119 C39.0023,12.895 37.6933,13.426 35.9373,13.695 C35.6973,13.731 35.4333,13.752 35.1563,13.752" id="Fill-209" fill="#BF8065" mask="url(#mask-12)"></path>
                <path d="M32.3848,12.5781 C32.2328,12.8731 32.0368,13.0761 31.9478,13.0291 C31.8578,12.9841 31.9058,12.7071 32.0588,12.4101 C32.2068,12.1161 32.4028,11.9141 32.4918,11.9601 C32.5838,12.0061 32.5328,12.2841 32.3848,12.5781" id="Fill-210" fill="#BF8065" mask="url(#mask-12)"></path>
                <path d="M39.7656,11.6885 C39.9956,11.9265 40.1246,12.1755 40.0526,12.2475 C39.9806,12.3185 39.7346,12.1815 39.5036,11.9435 C39.2716,11.7065 39.1446,11.4565 39.2166,11.3845 C39.2886,11.3145 39.5356,11.4515 39.7656,11.6885" id="Fill-211" fill="#BF8065" mask="url(#mask-12)"></path>
                <path d="M33.0098,9.5937 C33.0098,9.6797 32.8648,9.7527 32.6898,9.7527 C32.5118,9.7527 32.3668,9.6797 32.3668,9.5937 C32.3668,9.5037 32.5118,9.4317 32.6898,9.4317 C32.8648,9.4317 33.0098,9.5037 33.0098,9.5937" id="Fill-212" fill="#F8CDB5" mask="url(#mask-12)"></path>
                <path d="M62.3516,26.3906 C61.8206,28.0716 60.8476,29.2616 60.1756,29.0486 C59.5036,28.8376 59.3886,27.3026 59.9176,25.6236 C60.4476,23.9436 61.4236,22.7526 62.0956,22.9656 C62.7676,23.1766 62.8826,24.7116 62.3516,26.3906" id="Fill-213" fill="#4C6876" mask="url(#mask-12)"></path>
                <path d="M64.6133,30.3418 C64.6133,30.5538 60.9253,30.7258 56.3793,30.7258 C51.8303,30.7258 48.1423,30.5538 48.1423,30.3418 C48.1423,30.1268 51.8303,29.9548 56.3793,29.9548 C60.9253,29.9548 64.6133,30.1268 64.6133,30.3418" id="Fill-214" fill="#7399AC" mask="url(#mask-12)"></path>
                <path d="M49.8262,8.4844 C51.2792,8.0474 53.8982,5.8654 54.9162,3.4644 C55.9352,1.0654 56.4302,0.4004 57.1722,1.2834 C58.0492,2.3294 59.0622,3.9744 59.1352,5.2114 C59.2072,6.4474 58.6992,7.6114 56.5902,7.9744 C54.4802,8.3384 52.2242,7.9024 52.2242,7.9024 L49.8262,8.4844 Z" id="Fill-215" fill="#008342" mask="url(#mask-12)"></path>
                <path d="M51.6426,7.6113 C51.6426,7.6113 50.7266,7.1503 50.1156,5.5743 C49.7496,4.6293 49.6076,3.2483 49.6076,3.2483 C49.6076,3.2483 48.5896,4.4823 47.8616,5.2113 C47.1326,5.9383 45.3746,7.7903 45.3746,7.7903 C45.3746,7.7903 46.2466,8.3143 46.8286,9.0413 C47.4106,9.7673 47.7166,10.5933 47.7166,10.5933 C47.7166,10.5933 48.9536,9.4293 49.5336,8.9923 C50.1156,8.5563 51.6426,7.6113 51.6426,7.6113" id="Fill-216" fill="#008342" mask="url(#mask-12)"></path>
                <path d="M49.6797,8.7744 C47.3517,10.4824 46.4067,12.4104 46.0427,13.7934 C45.6177,15.4114 46.0427,17.4314 49.1697,17.7934 C52.2087,18.1464 54.1897,18.0844 56.5157,17.3574 C58.6547,16.6894 59.4977,14.8104 57.4607,12.2654 C55.4257,9.7194 53.5347,8.4124 52.5877,7.9744 C51.6427,7.5394 50.7697,7.9724 49.6797,8.7744" id="Fill-217" fill="#F8CDB5" mask="url(#mask-12)"></path>
                <path d="M50.7695,10.7393 C50.7695,11.0603 50.5095,11.3223 50.1895,11.3223 C49.8675,11.3223 49.6055,11.0603 49.6055,10.7393 C49.6055,10.4173 49.8675,10.1573 50.1895,10.1573 C50.5095,10.1573 50.7695,10.4173 50.7695,10.7393" id="Fill-218" fill="#01040C" mask="url(#mask-12)"></path>
                <path d="M53.6055,10.375 C53.6055,10.695 53.3475,10.956 53.0255,10.956 C52.7035,10.956 52.4435,10.695 52.4435,10.375 C52.4435,10.053 52.7035,9.793 53.0255,9.793 C53.3475,9.793 53.6055,10.053 53.6055,10.375" id="Fill-219" fill="#01040C" mask="url(#mask-12)"></path>
                <path d="M52.9531,12.375 C52.9531,12.838 52.4801,13.211 51.8981,13.211 C51.3141,13.211 50.8441,12.838 50.8441,12.375 C50.8441,11.912 51.3141,11.539 51.8981,11.539 C52.4801,11.539 52.9531,11.912 52.9531,12.375" id="Fill-220" fill="#BF8065" mask="url(#mask-12)"></path>
                <path d="M53.4609,11.7578 C53.4609,12.1988 52.8439,12.5568 52.0799,12.5568 C51.3159,12.5568 50.6989,12.1988 50.6989,11.7578 C50.6989,11.3148 51.3159,10.9558 52.0799,10.9558 C52.8439,10.9558 53.4609,11.3148 53.4609,11.7578" id="Fill-221" fill="#EF845C" mask="url(#mask-12)"></path>
                <path d="M53.1504,13.8086 L51.3064,13.6066 C51.3064,13.6066 51.1504,13.8616 51.5864,13.9246 C52.0254,13.9856 53.1504,13.8086 53.1504,13.8086" id="Fill-222" fill="#A9631C" mask="url(#mask-12)"></path>
                <path d="M55.5703,10.4473 L56.3713,9.2113 C56.3713,9.2113 57.3883,9.9383 57.2423,10.7393 C57.0993,11.5393 55.5703,10.4473 55.5703,10.4473" id="Fill-223" fill="#F8CDB5" mask="url(#mask-12)"></path>
                <path d="M47.3535,11.9746 L46.4805,10.3006 C46.4805,10.3006 45.3165,11.1026 45.3885,12.0486 C45.4605,12.9926 47.3535,11.9746 47.3535,11.9746" id="Fill-224" fill="#F8CDB5" mask="url(#mask-12)"></path>
                <path d="M47.4102,19.835 C47.4102,19.835 46.4802,20.299 45.7812,20.649 C44.7342,21.172 44.1522,21.696 44.1522,21.696 L45.5492,23.442 L47.8892,22.638 L45.5332,21.479 L47.0622,21.639 L49.5062,21.115 L47.4102,19.835 Z" id="Fill-225" fill="#008342" mask="url(#mask-12)"></path>
                <path d="M61.1523,23.8887 C60.7953,23.8127 60.2753,24.8057 59.9903,26.1087 C59.7053,27.4117 59.7653,28.5337 60.1213,28.6137 C60.4803,28.6917 61.0023,27.6977 61.2873,26.3927 C61.5703,25.0877 61.5113,23.9687 61.1523,23.8887 M61.0023,22.1637 C61.7713,21.5237 62.4143,21.7387 63.0113,21.9097 C63.6113,22.0797 64.5093,22.4217 64.8943,23.9617 C65.2793,25.5037 64.4233,28.4967 63.5273,29.6957 C62.6273,30.8947 61.4293,30.6367 60.4453,30.4227 C59.4613,30.2087 59.0763,29.8657 58.9493,29.0957 C58.8183,28.3257 58.9183,26.5367 59.1853,25.4927 C59.4453,24.4667 60.2323,22.8077 61.0023,22.1637" id="Fill-226" fill="#7399AC" mask="url(#mask-12)"></path>
                <path d="M56.332,19.7295 C56.332,19.7295 57.143,20.4495 58.217,20.8665 C59.293,21.2815 60.334,21.1715 60.334,21.1715 L59.213,23.1445 C59.213,23.1445 58.367,23.0935 57.371,22.6215 C56.377,22.1485 55.67,21.2385 55.65,21.1095 C55.633,20.9775 56.332,19.7295 56.332,19.7295" id="Fill-227" fill="#008342" mask="url(#mask-12)"></path>
                <path d="M59.8789,22.3691 C59.8789,22.3691 60.3159,22.9161 60.9709,23.1341 C61.6269,23.3521 61.8459,23.2431 62.4469,23.1341 C63.0489,23.0251 63.3219,23.3001 63.3219,23.3001 L63.1019,22.2601 C63.1019,22.2601 63.6499,22.6411 64.1969,22.7521 C64.7419,22.8611 65.1249,22.2041 65.1249,22.2041 L62.8299,20.6761 L60.4789,21.7131 L59.8789,22.3691 Z" id="Fill-228" fill="#F8CDB5" mask="url(#mask-12)"></path>
                <path d="M51.0605,18.6348 C51.0605,18.6348 49.8355,18.2968 48.8065,18.4958 C47.0035,18.8448 47.4685,19.5438 47.8185,19.9508 C48.1655,20.3598 48.9805,21.1148 48.9805,21.1148 L51.0605,18.6348 Z" id="Fill-229" fill="#008342" mask="url(#mask-12)"></path>
                <path d="M47.2363,22.4453 L48.8653,23.3263 L47.7383,25.9513 L45.5623,26.5563 C45.5623,26.5563 44.8103,26.1343 45.4783,25.6503 C46.1483,25.1663 47.2363,24.6823 47.2363,24.6823 C47.2363,24.6823 47.1523,24.6213 46.6503,24.2593 C46.1483,23.8953 46.0643,23.7773 46.4823,23.4123 C46.9023,23.0503 47.2363,22.4453 47.2363,22.4453" id="Fill-230" fill="#008342" mask="url(#mask-12)"></path>
                <path d="M47.0684,25.2266 L44.9784,25.1056 C44.9784,25.1056 44.9784,24.4416 45.7304,24.3806 C46.4824,24.3206 47.5704,24.5616 47.5704,24.5616 L47.0684,25.2266 Z" id="Fill-231" fill="#008342" mask="url(#mask-12)"></path>
                <path d="M56.0234,21.7539 L56.8984,20.5639 C56.8984,20.5639 56.5034,19.6489 55.8064,19.1249 C55.0584,18.5639 53.7984,18.5119 53.7984,18.5119 L52.5334,20.9569 L51.0484,18.5999 L49.3904,19.3419 C49.3904,19.3419 48.3434,21.1309 47.8634,22.1789 C47.3824,23.2259 47.6014,24.6659 48.1684,25.7129 C48.7364,26.7599 50.1324,28.5059 50.2634,28.9859 C50.3944,29.4669 49.9704,29.7259 49.5644,29.9579 C49.1894,30.1739 48.2264,30.3649 48.2264,30.3649 C48.2264,30.3649 49.5624,30.5419 50.2614,30.5419 C50.4294,30.5419 50.5024,30.5189 50.6544,30.5099 C50.7594,30.4769 50.9704,30.4489 51.1054,30.3989 C51.4644,30.2629 51.7344,30.0839 51.7344,30.0839 L51.8144,30.4039 C51.8514,30.3969 52.2384,30.4199 52.2754,30.4199 C52.4314,30.4199 52.6794,30.3559 53.3084,30.4059 L53.3084,29.9279 L54.0934,30.4489 C54.9124,30.5629 55.8414,30.5179 56.1684,30.5099 L55.0644,29.9899 C55.0644,29.9899 54.6254,29.1449 55.0644,28.2439 C55.3004,27.7589 55.5434,27.2849 56.1544,26.4979 C56.7654,25.7129 56.7654,25.3629 56.6344,24.2739 C56.5034,23.1829 56.0234,21.7539 56.0234,21.7539" id="Fill-232" fill="#008342" mask="url(#mask-12)"></path>
                <polygon id="Fill-233" fill="#9FA71F" mask="url(#mask-12)" points="55.8496 22.8105 53.3046 22.7595 53.3146 22.2035 53.3966 22.2035 53.4086 21.7965 55.7406 21.8725"></polygon>
                <path d="M53.3418,23.9678 C53.3418,24.4178 52.9628,24.7828 52.4938,24.7828 C52.0258,24.7828 51.6448,24.4178 51.6448,23.9678 C51.6448,23.5168 52.0258,23.1508 52.4938,23.1508 C52.9628,23.1508 53.3418,23.5168 53.3418,23.9678" id="Fill-234" fill="#FEFEFE" mask="url(#mask-12)"></path>
                <polygon id="Fill-235" fill="#B4C4CD" mask="url(#mask-12)" points="62.3652 30.4355 60.8222 30.4355 60.8222 30.1605 60.1092 29.7225 61.0602 29.6865 60.7072 29.2705 61.5372 29.2015 61.3552 28.9445 61.8922 28.5295 61.6812 27.9535 62.4202 27.7445 62.3042 27.2385 62.8632 27.1115 63.1012 28.1465 62.4312 28.3355 62.5742 28.7265 62.1382 29.0635 62.5762 29.6875 61.8632 29.7485 62.2582 30.2125 62.0192 30.2225"></polygon>
                <polygon id="Fill-236" fill="#B4C4CD" mask="url(#mask-12)" points="62.0879 30.4355 62.0119 30.1225 61.6489 29.7015 62.0199 29.6665 61.7459 29.4195 62.4059 29.3855 62.0879 28.8925 62.9469 28.7355 62.5489 28.0415 63.4729 27.7755 63.3849 27.4255 63.9419 27.2875 64.1619 28.1735 63.4099 28.3905 63.8479 29.1515 63.0309 29.3015 63.4219 29.9105 63.1539 29.9235 63.3669 30.1155 62.8109 30.1675 62.9019 30.2735"></polygon>
                <polygon id="Fill-237" fill="#7399AC" mask="url(#mask-12)" points="18.5195 30.8457 27.6545 30.5707 27.1875 30.2827 19.4085 30.4807"></polygon>
                <path d="M20.7988,0.9805 C18.2248,3.9255 15.2378,10.8505 14.5198,13.0035 C13.8008,15.1585 14.9688,15.8765 18.3768,16.5025 C21.7868,17.1305 24.2148,16.9745 24.2148,16.9745 C24.2148,16.9745 26.7848,16.1365 28.6078,15.1585 C30.0918,14.3585 31.1188,14.2615 30.4918,12.2875 C29.8628,10.3125 27.2618,4.6585 25.9158,2.7755 C24.5698,0.8905 22.0568,-0.4555 20.7988,0.9805" id="Fill-238" fill="#F8CDB5" mask="url(#mask-12)"></path>
            </g>
            <g id="Group-242" transform="translate(23.000000, 5.621100)">
                <mask id="mask-14" fill="white">
                    <use xlink:href="#path-13"></use>
                </mask>
                <g id="Clip-241"></g>
                <path d="M0.918,3.431 C0.797,4.685 2.349,5.344 2.349,5.344 L2.349,5.344 C2.349,5.344 3.916,5.367 4.68,4.924 L4.68,4.924 C5.816,4.269 5.696,3.251 5.696,3.251 L5.696,3.251 L5.1,1.758 C5.1,1.758 5.04,1.398 3.545,1.041 L3.545,1.041 C3.393,1.004 3.244,0.986 3.1,0.986 L3.1,0.986 C1.852,0.987 1.024,2.307 0.918,3.431" id="Fill-240" mask="url(#mask-14)"></path>
            </g>
            <g id="Group-275" transform="translate(14.000000, 0.621100)">
                <path d="M9.4688,15.2539 C9.3498,15.2539 9.2248,15.2469 9.0938,15.2339 C8.1058,15.1329 6.9488,14.4809 6.9008,14.4509 L7.2538,13.8289 C7.2638,13.8359 8.3298,14.4359 9.1658,14.5219 C9.9358,14.5989 10.4138,14.3759 11.0078,14.0529 L11.3518,14.6819 C10.7798,14.9939 10.2328,15.2539 9.4688,15.2539" id="Fill-243" fill="#BF8065"></path>
                <path d="M3.3535,15.3828 C3.3535,15.3828 6.7675,14.3338 8.4335,13.9858 C10.2945,13.5948 11.8635,13.5738 13.1195,13.7538 C14.3745,13.9328 15.1835,14.0688 15.1835,14.0688 C15.1835,14.0688 14.0825,12.3558 11.4165,11.7778 C9.9825,11.4688 8.1795,11.7598 6.8985,12.3358 C4.9065,13.2318 3.3535,15.3828 3.3535,15.3828" id="Fill-245" fill="#8C3D0E"></path>
                <path d="M12.1836,8.4434 C12.1836,8.8144 11.8226,9.1174 11.3746,9.1174 C10.9316,9.1174 10.5706,8.8144 10.5706,8.4434 C10.5706,8.0704 10.9316,7.7684 11.3746,7.7684 C11.8226,7.7684 12.1836,8.0704 12.1836,8.4434" id="Fill-247" fill="#01040C"></path>
                <path d="M7.248,8.293 C7.248,8.665 6.887,8.967 6.441,8.967 C5.994,8.967 5.635,8.665 5.635,8.293 C5.635,7.923 5.994,7.621 6.441,7.621 C6.887,7.621 7.248,7.923 7.248,8.293" id="Fill-249" fill="#01040C"></path>
                <g id="Group-253" transform="translate(3.000000, 0.000000)">
                    <mask id="mask-16" fill="white">
                        <use xlink:href="#path-15"></use>
                    </mask>
                    <g id="Clip-252"></g>
                    <path d="M3.5313,3.2236 C3.5803,2.9306 3.4963,2.5056 3.4083,2.1786 C3.2973,1.8866 3.2613,1.6986 3.2613,1.6986 C3.2613,1.6986 3.3383,1.9036 3.4083,2.1786 C3.6113,2.7046 4.0703,3.5776 5.0563,4.3006 C6.4023,5.2866 8.0173,5.3766 8.8263,4.8376 C9.2503,4.5546 9.4863,4.2196 9.6113,3.8826 C9.3573,3.4436 9.1213,3.0636 8.9163,2.7756 C7.5703,0.8906 5.0563,-0.4554 3.7993,0.9806 C2.8243,2.0956 1.7913,3.7796 0.8453,5.5596 C1.4043,5.4966 2.0153,5.4446 2.4923,4.9696 C2.9083,4.5566 3.4413,3.7616 3.5313,3.2236" id="Fill-251" fill="#8C3D0E" mask="url(#mask-16)"></path>
                </g>
                <path d="M6.4082,2.1787 C6.3382,1.9037 6.2622,1.6987 6.2622,1.6987 C6.2622,1.6987 6.2972,1.8867 6.4082,2.1787" id="Fill-254" fill="#8C3D0E"></path>
                <path d="M14.6973,8.7871 C14.6973,8.7871 14.9673,7.1721 15.3263,6.9041 C15.6833,6.6341 16.0433,6.8141 15.9533,8.0691 C15.8633,9.3251 14.6973,8.7871 14.6973,8.7871" id="Fill-256" fill="#F8CDB5"></path>
                <path d="M2.8223,8.9072 C2.8223,8.9072 2.3733,7.4712 1.6543,7.1132 C0.9373,6.7542 0.4903,7.7412 0.5803,8.7282 C0.6683,9.7152 1.0273,10.1642 1.4763,9.8042 C1.9243,9.4452 2.8223,8.9072 2.8223,8.9072" id="Fill-258" fill="#F8CDB5"></path>
                <path d="M10.0918,7.1484 C10.1308,7.3774 10.2108,7.7914 10.3298,8.1104 C10.3948,8.2834 10.4548,8.4504 10.5118,8.6134 C10.6958,9.1254 10.8518,9.5684 11.0838,9.9334 C11.3148,10.2984 12.0568,10.5744 12.8128,10.5744 C13.0258,10.5744 13.2248,10.5504 13.4098,10.5084 C14.3458,10.2944 14.5878,9.9614 14.6918,9.4614 C14.8168,8.8414 14.9958,7.3044 15.0568,6.7594 C14.8888,6.6464 14.5288,6.4554 13.9178,6.3344 C12.9868,6.1464 12.4898,6.1714 11.4138,6.4264 C10.8068,6.5724 10.3128,6.9554 10.0918,7.1484 M12.8128,11.2794 C11.9608,11.2794 10.9098,10.9804 10.4878,10.3104 C10.2148,9.8794 10.0348,9.3794 9.8458,8.8484 C9.7908,8.6904 9.7328,8.5274 9.6698,8.3574 C9.4668,7.8154 9.3688,7.0924 9.3648,7.0624 L9.3438,6.8944 L9.4608,6.7714 C9.4898,6.7404 10.2208,5.9864 11.2498,5.7404 C12.4318,5.4594 13.0218,5.4354 14.0568,5.6404 C15.1818,5.8654 15.6348,6.3094 15.6838,6.3594 L15.7988,6.4784 L15.7808,6.6424 C15.7718,6.7304 15.5408,8.8154 15.3828,9.6014 C15.1598,10.6914 14.3418,11.0194 13.5688,11.1964 C13.3318,11.2524 13.0758,11.2794 12.8128,11.2794" id="Fill-260" fill="#01040C"></path>
                <path d="M2.8262,7.5723 C3.0432,8.0993 3.5972,9.4023 4.0102,9.9703 C4.7362,10.9783 5.3632,11.1563 6.6482,10.8283 C7.6482,10.5743 7.9512,9.7203 8.1312,8.8393 C8.2652,8.1853 8.3512,7.4663 8.3902,7.1223 C8.1252,6.9493 7.5352,6.6153 6.7692,6.4813 C6.6072,6.4533 6.4202,6.4383 6.2112,6.4383 C5.4592,6.4383 4.6232,6.6213 4.1272,6.8013 C3.5412,7.0133 3.0662,7.3693 2.8262,7.5723 M5.6872,11.6773 C4.7622,11.6773 4.0882,11.2933 3.4332,10.3873 C2.8632,9.5973 2.1052,7.6873 2.0722,7.6053 L1.9882,7.3903 L2.1522,7.2243 C2.1812,7.1953 2.8872,6.4953 3.8852,6.1333 C4.7892,5.8023 6.0962,5.6403 6.8922,5.7813 C8.1292,5.9983 8.9512,6.6463 8.9862,6.6743 L9.1372,6.7933 L9.1172,6.9843 C9.1152,7.0273 9.0172,8.0493 8.8282,8.9803 C8.6252,9.9743 8.2152,11.1613 6.8262,11.5163 C6.3962,11.6263 6.0252,11.6773 5.6872,11.6773" id="Fill-262" fill="#01040C"></path>
                <path d="M7.9844,18.6074 L11.0684,21.1274 L9.8904,22.3634 L8.4184,21.2074 C8.4184,21.2074 9.6914,19.1994 9.8304,18.8974 C9.9684,18.5954 10.0044,18.1314 9.3884,18.0094 C8.7754,17.8864 7.9844,18.6074 7.9844,18.6074" id="Fill-264" fill="#D84520"></path>
                <path d="M6.3145,17.8691 L9.7675,22.2911 L11.4745,18.3731 L14.3845,18.8771 C14.3845,18.8771 14.5785,19.3831 14.4625,20.0411 C14.3675,20.5721 13.8805,21.0111 13.8805,21.0111 L14.8375,22.8961 L14.0625,24.9651 L12.6775,23.8831 L13.8415,25.6291 C13.8415,25.6291 13.4475,26.3991 12.9105,27.0251 C12.3635,27.6621 11.9985,28.5491 11.9025,28.8871 C11.8085,29.2151 11.8245,29.5851 11.8245,29.5851 L10.6605,29.7011 L10.2345,26.8301 C10.2345,26.8301 9.3785,26.9461 8.5645,27.5291 C7.8265,28.0571 6.7815,30.0511 6.7815,30.0511 L6.3145,30.3221 L5.6565,30.3221 L5.6565,26.8301 C5.6565,26.0171 5.5955,25.4331 5.5955,25.4331 L7.5565,23.5341 L5.1275,25.0321 C5.1275,25.0321 4.3375,23.9981 4.0275,23.5341 C3.7165,23.0681 3.5645,22.8701 3.7345,22.3061 C3.9665,21.5291 4.5485,20.3661 4.5485,20.3661 C4.5485,20.3661 3.3285,19.0711 3.8715,18.7601 C4.4145,18.4501 6.3145,17.8691 6.3145,17.8691" id="Fill-266" fill="#01040C"></path>
                <path d="M6.1523,8.251 C6.1523,8.351 6.0063,8.431 5.8243,8.431 C5.6423,8.431 5.4963,8.351 5.4963,8.251 C5.4963,8.153 5.6423,8.072 5.8243,8.072 C6.0063,8.072 6.1523,8.153 6.1523,8.251" id="Fill-268" fill="#F8CDB5"></path>
                <path d="M11.5137,29.377 C11.5137,29.377 12.2027,29.869 12.7027,30.051 C13.1187,30.201 13.4297,30.292 13.6367,30.304 C13.9567,30.322 14.5137,30.103 14.5137,30.103 C14.5137,30.103 14.0507,30.682 13.3747,30.775 C12.9607,30.832 12.5487,30.775 12.0837,30.618 C11.6177,30.465 11.3597,30.206 11.3597,30.206 L11.3537,30.644 L10.8067,30.625 C10.8067,30.625 10.5317,30.31 10.5317,30.103 C10.5317,29.896 10.7387,29.482 10.7387,29.482 L11.5137,29.377 Z" id="Fill-270" fill="#01040C"></path>
                <g id="Group-274" transform="translate(3.000000, 29.000000)">
                    <mask id="mask-18" fill="white">
                        <use xlink:href="#path-17"></use>
                    </mask>
                    <g id="Clip-273"></g>
                    <path d="M3.0352,0.6055 C2.7892,0.9455 2.4312,1.1345 2.1092,1.2655 C1.7012,1.4345 1.2032,1.5015 0.9962,1.4925 C0.6192,1.4725 0.0152,1.3595 0.0152,1.3595 C0.0152,1.3595 0.7132,1.9085 1.3242,1.9805 C1.7382,2.0335 2.1502,1.9805 2.6172,1.8265 C3.0822,1.6705 3.3422,1.4145 3.3422,1.4145 L3.3362,1.8125 L3.8462,1.7945 C3.8462,1.7945 4.0902,1.5685 4.1292,1.3225 C4.1602,1.1195 3.9632,0.6885 3.9632,0.6885 L3.0352,0.6055 Z" id="Fill-272" fill="#01040C" mask="url(#mask-18)"></path>
                </g>
            </g>
        </g>
    </g>
</svg>