<?xml version="1.0" encoding="UTF-8" standalone="no"?>
<svg width="173px" height="72px" viewBox="0 0 173 72" version="1.1" xmlns="http://www.w3.org/2000/svg" xmlns:xlink="http://www.w3.org/1999/xlink">
    <!-- Generator: Sketch 3.8.3 (29802) - http://www.bohemiancoding.com/sketch -->
    <title>bg-header</title>
    <desc>Created with Sketch.</desc>
    <defs></defs>
    <g id="Page-1" stroke="none" stroke-width="1" fill="none" fill-rule="evenodd">
        <g transform="translate(-4.000000, -4.000000)">
            <g id="Group-32" transform="translate(0.000000, 0.650000)">
                <polygon id="Stroke-2" stroke="#2F2725" stroke-width="0.25" points="0.125 320.875 181.267 320.875 181.267 0.475 0.125 0.475"></polygon>
                <path d="M145.9932,10.3735 C145.9932,10.3735 146.0052,8.6835 145.9112,6.9525 C145.8152,5.2215 145.1022,4.7465 144.4752,4.6775 C143.7082,4.5945 143.0162,5.4465 143.0752,6.7445 L141.6142,10.4755 L145.9932,10.3735 Z" id="Fill-5" fill="#FEFEFE"></path>
                <path d="M145.9932,10.3735 C145.9932,10.3735 146.0052,8.6835 145.9112,6.9525 C145.8152,5.2215 145.1022,4.7465 144.4752,4.6775 C143.7082,4.5945 143.0162,5.4465 143.0752,6.7445 L141.6142,10.4755 L145.9932,10.3735 L145.9932,10.3735 Z" id="Stroke-6" stroke="#FEFEFE" stroke-width="5"></path>
                <path d="M4.9648,42.9844 L4.9648,65.1014 L176.4268,65.1014 L176.4268,40.7834 C172.7178,39.3614 174.9168,38.6474 170.3288,36.5524 C165.7278,34.4524 163.9818,32.0774 163.9818,32.0774 C163.9818,32.0774 161.0828,35.2654 154.9968,37.2944 C152.8738,38.0024 149.9028,38.3824 146.6728,38.4784 C146.5868,38.4674 146.5048,38.4574 146.4168,38.4454 C143.6258,38.0804 142.8818,36.1004 142.8818,36.1004 C142.8818,36.1004 139.9738,37.7144 135.7368,37.7914 C134.3758,37.5744 133.0888,37.3114 131.9268,37.0034 C126.8058,35.6484 107.4868,35.8614 105.9718,34.6364 C105.9718,34.6364 80.6258,39.3524 70.4598,42.0624 C59.9088,44.8764 44.0708,45.0284 33.7928,45.3874 C33.7928,45.3874 22.4598,46.1034 4.9648,42.9844" id="Fill-7" fill="#EBEBEC"></path>
                <path d="M157.792,72.3569 C153.892,69.0599 151.118,66.0879 149.136,62.2569 C147.151,58.4219 145.077,53.7169 148.806,49.6409 C150.095,48.2319 151.646,47.5109 155.22,46.7539 C157.981,46.1709 160.749,46.1079 162.985,45.2389 C167.296,43.5649 164.577,42.0109 160.149,41.8399 C154.122,41.6079 149.948,40.6809 147.745,39.9859 C145.376,39.2369 145.401,38.7849 145.401,38.7849 C145.401,38.7849 144.142,39.2039 145.774,40.5649 C147.165,41.7249 149.136,42.6519 151.894,43.4579 C155.327,44.4599 155.325,45.4419 153.524,46.3939 C151.646,47.3859 148.056,47.5449 139.481,47.5999 C130.185,47.6589 116.124,49.9189 105.876,53.8719 C98.634,56.6649 90.601,60.5029 82.003,64.7889 C82.003,64.7889 122.354,80.9579 157.792,72.3569" id="Fill-8" fill="#9F9FA0"></path>
                <path d="M125.9385,49.8223 C126.7155,49.7903 128.9465,49.9053 129.3505,49.9463 C129.7565,49.9863 130.0165,50.0733 129.4485,50.1483 C128.7235,50.2443 126.4675,50.2233 126.4675,50.2233 C126.4675,50.2233 124.8645,51.5283 122.5475,51.8193 C119.9465,52.1463 118.2725,52.0503 118.4775,51.3253 C118.6185,50.8283 121.1945,50.1093 123.0225,49.9893 C124.8505,49.8693 125.2785,49.8493 125.9385,49.8223" id="Fill-9" fill="#595757"></path>
                <path d="M135.8584,50.6274 C135.8584,50.6274 135.3334,50.5954 133.5204,51.3284 C131.6144,52.0994 130.2294,52.7894 130.2294,52.7894 L133.1864,53.0794 C133.1864,53.0794 133.8254,52.6264 134.4484,52.2334 C135.0464,51.8554 135.6204,51.5424 135.9544,51.3674 C136.6314,51.0094 137.2824,50.7914 137.2824,50.7914 L135.8584,50.6274 Z" id="Fill-10" fill="#FEFEFE"></path>
                <polygon id="Fill-11" fill="#FEFEFE" points="139.9072 49.2441 136.9302 49.8661 138.5732 50.0881 140.8052 49.3561"></polygon>
                <path d="M128.6748,57.1123 C130.1118,55.4063 131.7278,54.2953 131.7278,54.2953 L128.5458,54.0573 C128.5458,54.0573 125.6258,55.9163 123.2768,58.0513 C122.9308,58.3653 122.6008,58.6773 122.2798,58.9903 L127.3348,58.9903 C127.7448,58.3183 128.1928,57.6873 128.6748,57.1123" id="Fill-12" fill="#FEFEFE"></path>
                <polygon id="Fill-13" fill="#FEFEFE" points="140.833 49.0259 141.366 49.1459 142.794 48.8269"></polygon>
                <path d="M158.2939,45.2012 C158.2939,45.2012 158.8599,45.0012 159.0909,44.7882 C159.3209,44.5762 159.3549,44.4142 159.3549,44.4142 L159.7779,44.3902 C159.7779,44.3902 159.8679,44.5832 159.4619,44.8912 C159.2219,45.0732 158.2939,45.2012 158.2939,45.2012" id="Fill-14" fill="#FEFEFE"></path>
                <path d="M159.3154,43.9741 L159.7844,43.9351 C159.7844,43.9351 159.7394,43.7101 159.5344,43.5971 C159.2604,43.4441 158.7864,43.3831 158.7864,43.3831 L158.3684,43.4711 C158.3684,43.4711 158.8954,43.5511 159.1064,43.6891 C159.3174,43.8271 159.3154,43.9741 159.3154,43.9741" id="Fill-15" fill="#FEFEFE"></path>
                <polygon id="Fill-16" fill="#FEFEFE" points="157.8135 43.3237 158.3115 43.1987 157.2395 42.9847 156.9545 43.0637"></polygon>
                <path d="M124.4502,68.6152 C124.5712,66.2782 125.0912,63.9322 125.9362,61.8072 L119.7942,61.8072 C118.8192,63.1062 117.9052,64.5962 116.9382,66.5022 C114.9362,70.4432 113.9832,74.5662 113.5502,77.1062 C117.4732,77.5652 121.5672,77.7732 124.8052,77.7772 C124.5402,75.4862 124.2702,72.0912 124.4502,68.6152" id="Fill-17" fill="#FEFEFE"></path>
                <path d="M169.4736,48.522 L169.5086,48.829 C169.5086,48.829 166.7936,48.77 166.4186,48.743 C166.0436,48.717 166.7176,48.474 167.4016,48.415 C168.2296,48.342 169.4736,48.522 169.4736,48.522" id="Fill-18" fill="#C8C9CA"></path>
                <path d="M133.8975,47.2041 L133.9595,47.3821 C133.9595,47.3821 132.4995,47.4011 131.7665,47.5091 C131.3935,47.5651 132.0225,47.2441 132.5615,47.1821 C133.4055,47.0831 133.8975,47.2041 133.8975,47.2041" id="Fill-19" fill="#C8C9CA"></path>
                <polyline id="Stroke-20" stroke="#595757" stroke-width="0.57" points="168.6729 21.4917 170.0659 20.2497 171.2709 21.4537 170.0209 22.5787 171.1419 23.8197 169.9089 25.0697 170.8589 26.2747 169.7469 27.3907 170.7819 28.5917 169.5909 29.8417 170.5209 31.6027 169.5789 32.7127 170.4029 34.0677 169.3879 35.4597 170.1029 36.8157 169.1979 38.2837 169.9439 39.5127 169.0869 40.8067 169.6709 42.2247 168.8999 43.2907 169.6519 44.6837 168.8229 45.7387 169.4459 47.1627 168.8229 47.9597"></polyline>
                <path d="M157.0381,8.0508 L160.1261,7.8628 C160.1261,7.8628 159.7681,6.2758 158.5441,6.3338 C157.3171,6.3898 157.0381,8.0508 157.0381,8.0508" id="Fill-21" fill="#FEFEFE"></path>
                <path d="M157.0381,8.0508 L160.1261,7.8628 C160.1261,7.8628 159.7681,6.2758 158.5441,6.3338 C157.3171,6.3898 157.0381,8.0508 157.0381,8.0508 L157.0381,8.0508 Z" id="Stroke-22" stroke="#FEFEFE" stroke-width="5"></path>
                <path d="M156.7979,10.1372 L158.6259,6.2072 C158.7279,5.3642 158.8739,5.1242 159.0829,4.7222 C159.3189,4.2672 160.2629,3.5922 160.6179,5.4822 C160.8249,6.5942 160.8979,10.0302 160.8979,10.0302 L156.7979,10.1372 Z" id="Fill-23" fill="#FEFEFE"></path>
                <path d="M156.7979,10.1372 L158.6259,6.2072 C158.7279,5.3642 158.8739,5.1242 159.0829,4.7222 C159.3189,4.2672 160.2629,3.5922 160.6179,5.4822 C160.8249,6.5942 160.8979,10.0302 160.8979,10.0302 L156.7979,10.1372 L156.7979,10.1372 Z" id="Stroke-24" stroke="#FEFEFE" stroke-width="5"></path>
                <path d="M157.0381,8.0508 L160.1261,7.8628 C160.1261,7.8628 159.7681,6.2758 158.5441,6.3338 C157.3171,6.3898 157.0381,8.0508 157.0381,8.0508 L157.0381,8.0508 Z" id="Stroke-25" stroke="#595757" stroke-width="1.347"></path>
                <path d="M160.8975,10.0303 C160.8975,10.0303 160.8255,6.5933 160.6185,5.4823 C160.2625,3.5923 159.3195,4.2673 159.0835,4.7223 C158.8745,5.1243 158.7275,5.3643 158.6265,6.2073" id="Stroke-26" stroke="#595757" stroke-width="0.909"></path>
                <polygon id="Fill-27" fill="#595757" points="131.9287 21.8887 133.7257 47.4037 133.9657 47.3867 132.1887 22.1267 133.3197 22.1127 133.3057 21.8697"></polygon>
                <polygon id="Fill-28" fill="#595757" points="170.0088 21.6318 168.5518 48.8268 168.7938 48.8398 170.2588 21.5148 170.2648 21.3858 168.5208 21.4078 168.5048 21.6518"></polygon>
                <polygon id="Fill-29" fill="#595757" points="131.0303 20.8311 130.8913 20.8331 133.1713 47.4111 133.4283 47.3901 131.1733 21.0861 133.2533 21.0461 133.2353 20.7881"></polygon>
                <polygon id="Fill-30" fill="#595757" points="168.6064 20.106 168.5904 20.365 171.1964 20.314 169.2234 48.833 169.4814 48.851 171.4754 20.05"></polygon>
                <path d="M133.8564,25.228 C133.8894,25.748 134.3424,26.168 134.8664,26.162 L166.9204,25.718 C167.4424,25.71 167.9114,25.28 167.9614,24.761 L168.6514,10.982 C168.7024,10.463 168.2884,9.9 167.5454,9.897 L133.8704,10.638 C133.3484,10.648 132.9504,11.082 132.9834,11.604 L133.8564,25.228 Z" id="Fill-31" fill="#0078A8"></path>
            </g>
            <path d="M156.124,10.804 L150.599,19.57 L146.009,11.029 L141.005,11.139 L133.762,24.406 L133.856,25.878 C133.889,26.398 134.343,26.818 134.866,26.812 L134.866,26.812 L166.921,26.368 C167.442,26.361 167.911,25.93 167.962,25.41 L167.962,25.41 L167.98,25.236 L161.268,10.68 L156.124,10.804 Z" id="Fill-33"></path>
            <g id="Group-81" transform="translate(10.000000, 4.650000)">
                <path d="M157.5967,7.71 C157.6357,7.002 157.3447,6.84 156.6667,6.864 L124.6867,7.538 C124.1647,7.55 123.8817,7.82 123.9167,8.341 L124.7257,20.308 C124.7627,20.828 125.0127,21.218 125.5337,21.211 L156.2037,20.788 C156.7257,20.781 156.9817,20.394 157.0327,19.875 L157.5967,7.71 L157.5967,7.71 Z" id="Stroke-35" stroke="#FEFEFE" stroke-width="1.14"></path>
                <path d="M86.999,30.8286 C85.433,31.4256 81.979,31.8246 79.542,31.8016 C76.216,31.7696 74.683,31.3946 73.386,30.9086 C72.089,30.4226 72.233,29.5636 72.976,29.0576 C73.53,28.6786 74.304,28.3366 75.52,29.2626 C76.124,29.7206 76.675,30.6566 76.675,30.6566 C76.675,30.6566 76.019,27.4306 76.075,26.4056 C76.147,25.1086 77.509,24.3906 79.028,25.6866 C80.364,26.8236 82.608,30.6206 82.608,30.6206 C82.608,30.6206 81.351,28.2466 81.802,26.5516 C82.181,25.1426 83.983,24.4716 86.187,25.9496 C88.667,27.6146 90.161,29.6236 86.999,30.8286" id="Fill-37" fill="#EBEBEC"></path>
                <path d="M1.5937,30.6235 C3.9947,31.8225 7.9697,32.9125 11.1837,32.3345 C14.3987,31.7585 14.8647,30.7185 14.5837,29.5965 C14.3027,28.4735 13.7437,28.0515 12.8647,28.5145 C11.9857,28.9765 11.4307,30.3785 11.4307,30.3785 C11.4307,30.3785 12.4737,27.8455 10.8237,26.0115 C9.1737,24.1785 7.2337,24.4835 6.6787,25.8865 C6.1237,27.2895 6.3057,27.9085 6.4897,28.5285 C6.6697,29.1475 7.0767,30.2045 7.0767,30.2045 C7.0767,30.2045 6.3367,29.1645 5.1547,28.5935 C3.9717,28.0235 2.8707,27.5695 1.6807,27.9575 C0.4897,28.3445 0.1207,29.8885 1.5937,30.6235" id="Fill-39" fill="#EBEBEC"></path>
                <polyline id="Stroke-41" stroke="#595757" stroke-width="0.433" points="123.1865 17.4644 122.6415 17.0784 121.2495 18.8854 122.2075 20.0144 121.5495 21.3324 122.3775 22.3864 121.7275 23.6284 122.5475 24.6174 121.8975 25.8024 122.6315 26.6784 122.0945 27.8364 122.8015 28.7964 122.1805 29.8134"></polyline>
                <polyline id="Stroke-43" stroke="#595757" stroke-width="0.399" points="122.8291 37.0137 123.3661 37.6917 122.9991 38.6507 123.5931 39.5557 123.1121 40.3737 123.6771 41.5037"></polyline>
                <path d="M134.6689,4.21 L131.6119,4.455 C131.6119,4.455 131.8639,2.819 133.0889,2.721 C134.3119,2.623 134.6689,4.21 134.6689,4.21" id="Fill-45" fill="#FEFEFE"></path>
                <path d="M134.6689,4.21 L131.6119,4.455 C131.6119,4.455 131.8639,2.819 133.0889,2.721 C134.3119,2.623 134.6689,4.21 134.6689,4.21 L134.6689,4.21 Z" id="Stroke-47" stroke="#FEFEFE" stroke-width="5"></path>
                <path d="M134.6689,4.21 L131.6119,4.455 C131.6119,4.455 131.8639,2.819 133.0889,2.721 C134.3119,2.623 134.6689,4.21 134.6689,4.21 L134.6689,4.21 Z" id="Stroke-49" stroke="#595757" stroke-width="1.347"></path>
                <path d="M133.0752,2.7446 C133.0162,1.4466 133.7082,0.5946 134.4752,0.6776 C135.1022,0.7466 135.8152,1.2216 135.9112,2.9526 C136.0052,4.6826 135.9932,6.3786 135.9932,6.3786" id="Stroke-51" stroke="#595757" stroke-width="0.859"></path>
                <path d="M134.7236,4.5566 L131.6146,4.9186 C131.6146,4.9186 131.7806,5.5956 132.1626,5.5646 C132.5436,5.5346 133.8526,5.4836 134.2276,5.3996 C134.7076,5.2916 134.7236,4.5566 134.7236,4.5566" id="Fill-53" fill="#F7E88C"></path>
                <path d="M146.999,4.4058 L150.206,4.3188 C150.206,4.3188 150.091,5.0198 149.708,5.0378 C149.325,5.0548 148.022,5.1108 147.64,5.1348 C147.173,5.1628 146.999,4.4058 146.999,4.4058" id="Fill-55" fill="#F7E88C"></path>
                <path d="M128.0068,31.0229 L127.8858,30.9409 C127.8858,30.9409 127.4908,31.0469 127.1138,31.1249 C126.7368,31.2029 126.1528,31.2809 125.8678,31.3199 C125.5808,31.3589 125.3188,31.3349 125.3188,31.3349 C125.3158,31.2829 125.3038,31.2299 125.2838,31.1769 C125.2258,31.0179 125.0748,30.8139 124.6928,30.7469 C124.5828,30.7269 124.4698,30.7179 124.3548,30.7179 C123.9048,30.7179 123.4988,30.8629 123.3038,30.9439 C122.9818,31.0279 122.2798,31.2689 121.7488,31.3939 L119.3658,31.8939 C120.2368,31.2479 120.3178,30.4029 119.9738,29.5089 C119.7958,29.0429 119.2368,28.4059 118.9478,27.9109 C119.1748,27.9109 119.3678,27.8839 119.7058,27.8539 C120.6008,27.7729 121.1708,27.2769 121.2898,26.5919 C121.3998,25.9659 121.0848,25.2769 120.4288,25.0469 C119.9988,24.8969 119.7448,24.8379 119.4028,24.8189 C119.5728,24.7249 119.9088,24.4209 119.9538,24.3069 C120.0968,23.9369 120.0248,23.7339 119.9248,23.5889 C119.6888,23.2449 119.2338,23.2449 119.0378,23.2449 C118.8978,23.2449 118.5868,23.2829 118.3608,23.3399 C117.9048,23.4539 117.4438,23.6519 117.0148,23.8149 C116.9168,23.5209 116.7958,23.0219 116.7298,22.7519 C116.5598,22.0699 116.5378,22.0469 116.5378,21.1929 C116.5378,20.6339 116.8228,19.9589 116.8228,19.9589 C116.8228,19.9589 116.6278,19.6379 116.2338,19.3559 C115.8408,19.0759 115.4948,18.8759 115.0148,18.7729 C114.2258,18.6029 113.4348,19.1679 113.4348,19.1679 L112.8798,20.8559 C112.7668,20.3919 112.6418,19.4719 112.5948,19.0359 C112.5688,18.7899 112.5458,18.5589 112.5128,18.3399 C112.3678,17.4139 111.5948,16.5439 110.6318,16.5699 C109.9088,16.5879 109.1928,16.9389 108.7278,17.3669 C107.2768,18.6989 106.4538,20.8889 107.8778,22.7629 C108.3658,23.4059 109.2728,23.7529 110.1788,24.0809 C110.1108,24.1799 109.8428,24.4209 109.7798,24.5179 C109.3138,25.2519 109.1728,25.9889 109.1298,26.3659 C108.9908,26.4469 108.8658,26.5399 108.7568,26.6429 C108.1888,27.1829 107.8938,27.7069 107.6768,28.0899 C107.6198,28.1899 107.5678,28.2849 107.5128,28.3709 C107.4598,28.4559 107.4208,28.5089 107.3938,28.5419 C107.2688,28.4359 107.1998,28.2069 107.1868,28.1119 L106.1788,28.1799 C106.1808,28.2809 106.2038,29.1869 106.6868,29.7769 C106.9758,30.1309 107.3208,30.3849 107.6948,30.5239 C107.3158,30.9189 106.8998,31.3879 106.5108,31.9029 L106.4888,31.8519 L102.9028,33.7779 L102.9518,34.1269 C102.9598,34.1899 103.1708,35.6899 103.7298,37.3399 C104.2938,39.0039 105.2728,39.9589 106.4148,39.9589 C106.6298,39.9589 106.8488,39.9239 107.0658,39.8539 C108.6028,39.3609 110.4818,37.5969 110.5618,37.5219 L110.6548,37.4329 L110.7898,37.0139 C112.3608,36.6149 113.9438,35.9929 115.3288,35.2339 L116.8878,37.9799 L117.3118,37.7819 C117.4818,37.7039 122.1928,35.8169 122.9288,35.4479 C123.0578,35.3839 123.0148,35.4789 123.1708,35.6089 C123.3678,35.7399 123.5558,35.7899 123.9778,35.7899 C124.0558,35.7899 124.1888,35.7139 124.2798,35.6959 C124.6908,35.6139 124.9168,35.3689 125.0808,35.1899 C125.1358,35.1319 125.2158,35.0449 125.2468,35.0359 C125.2508,35.0359 125.2668,35.0369 125.2938,35.0469 C125.5968,35.1539 125.6928,35.3039 125.7098,35.3389 L125.8348,35.8919 L126.2918,35.4899 C126.3348,35.4529 126.5948,34.9939 126.6498,34.7089 C126.6998,34.4399 126.6908,34.2499 126.5458,33.9039 C126.4698,33.7159 126.0708,33.3959 126.0808,33.3049 C126.8388,33.0979 127.2448,32.9009 127.6218,32.6149 C128.0848,32.2639 128.3058,31.9249 128.2958,31.5779 C128.2898,31.3109 128.1358,31.1109 128.0068,31.0229" id="Fill-57" fill="#FEFEFE"></path>
                <polygon id="Fill-59" fill="#FEFEFE" points="105.4189 23.4731 106.4519 20.2731 106.7629 23.9891 108.0319 22.2731 107.8079 24.8711 111.1179 22.7571 109.4759 25.4291 113.0579 23.7831 109.5849 26.5801 114.5149 26.5631 109.8209 27.8881 114.5149 29.2101 109.5849 29.1951 113.5829 31.7281 108.9009 30.3741 111.8139 33.8711 107.8369 31.3101 109.3779 35.4271 106.4949 31.9111 106.5149 36.2451 105.0089 32.1181 103.4399 36.3171 102.6569 33.2531 100.8659 35.4991 101.8509 31.8161 98.7219 34.1871 101.1869 30.6981 95.9229 32.5561 100.5689 29.5631 96.2329 29.2531 100.1959 28.1961 95.4069 26.2601 100.5689 26.5701 95.9229 23.5761 101.1159 25.4001 99.0209 22.1311 101.9109 24.5051 100.7739 19.5511 103.5209 23.8631 103.9739 19.3441"></polygon>
                <path d="M125.3877,32.4761 C125.3877,32.4761 125.6517,32.8521 125.7097,33.0181 C125.7687,33.1821 125.6887,33.5201 125.5907,33.7011 C125.4927,33.8831 125.3487,34.0781 125.3487,34.0781 C125.3487,34.0781 124.2397,33.1131 124.5227,32.8761 C124.8077,32.6391 125.4367,32.4411 125.4367,32.4411" id="Fill-61" fill="#BF8065"></path>
                <path d="M125.0791,31.7251 C125.0791,31.7251 125.1961,31.1601 124.5521,31.1061 C123.9851,31.0591 123.3491,31.3211 123.3491,31.3211 C123.3491,31.3211 123.1531,31.3481 122.9791,31.2991 C122.5401,31.7301 122.0131,31.8651 121.4461,32.0271 L122.2221,33.8181 C122.2221,33.8181 122.7631,33.7101 123.2121,34.3511 C123.6631,34.9931 123.5871,35.4661 124.2081,35.3421 C124.8471,35.2141 124.8861,34.5201 125.4151,34.7061 C125.9441,34.8931 126.0521,35.2191 126.0521,35.2191 C126.0521,35.2191 126.3641,34.9441 126.4031,34.5981 C126.4461,34.2071 126.1611,33.9051 125.6831,33.8751 C124.8721,33.8241 124.8621,33.2001 124.8621,33.2001 C124.8621,33.2001 126.8781,32.9241 127.6041,32.1971 C128.3921,31.4101 127.8411,31.1971 127.8411,31.1971 C127.8411,31.1971 127.4581,31.3071 127.1141,31.3981 C126.7681,31.4891 125.9701,31.6341 125.6771,31.6701 C125.3881,31.7061 125.0791,31.7251 125.0791,31.7251" id="Fill-63" fill="#F6BA94"></path>
                <path d="M111.5752,40.1074 C111.5752,40.1074 110.5672,39.9344 109.4292,37.5084 C108.3562,35.2204 117.9292,32.9824 117.9292,32.9824 C117.9292,32.9824 119.5772,37.4814 119.6752,38.9604 C119.7702,40.4004 119.2312,41.5674 118.5162,42.7784 C117.6572,44.2324 117.2822,44.7144 117.6512,45.3604 C118.0202,46.0074 118.8522,46.1924 118.8522,46.1924 C118.8522,46.1924 117.4662,46.2854 116.7272,46.0994 C115.9872,45.9144 115.5262,45.6374 115.5262,45.6374 L115.5262,46.0994 L114.9752,46.0524 L115.1452,42.1844 C115.1452,42.1844 114.2332,46.0074 114.1412,46.3764 C114.0482,46.7464 113.4292,46.8744 113.4292,46.8744 L113.2182,46.0994 C113.2182,46.0994 113.2182,46.4694 112.0162,47.3934 C110.8152,48.3164 108.7822,48.2244 108.7822,48.2244 C108.7822,48.2244 109.8002,47.3934 110.1692,46.6544 C110.5382,45.9144 110.9072,43.9754 111.0932,42.9584 C111.2762,41.9424 111.5752,40.1074 111.5752,40.1074" id="Fill-65" fill="#0087B3"></path>
                <path d="M104.501,24.7881 C105.032,23.9481 105.685,24.6071 105.685,25.1611 C105.685,25.7161 105.595,26.5421 105.644,27.5231 C105.687,28.3821 105.954,29.0251 105.954,29.0251 C105.954,29.0251 106.249,29.0881 106.374,28.8151 C106.499,28.5441 106.374,28.3811 106.29,28.0831 C106.206,27.7911 106.394,27.4141 106.646,27.1841 C107.177,26.6971 107.901,27.0091 107.901,27.0091 C107.901,27.0091 107.374,27.7621 107.22,28.4841 C107.064,29.2121 107.907,29.5251 107.716,30.3341 C107.491,31.2881 106.784,30.8321 106.272,31.4271 C105.87,31.8971 106.288,32.6681 106.288,32.6681 L104.015,33.2701 C104.015,33.2701 103.946,32.9581 103.843,32.6021 C103.774,32.3731 103.487,32.2881 103.173,32.0371 C102.474,31.4781 102.011,30.8381 102.022,30.0711 C102.044,28.7741 102.733,28.0621 102.733,28.0621 C102.733,28.0621 102.714,27.3801 103.089,26.5571 C103.226,26.2581 103.347,25.9171 103.606,25.6571 C103.878,25.3851 104.228,25.3761 104.228,25.3761 C104.228,25.3761 104.353,25.0211 104.501,24.7881" id="Fill-67" fill="#F6BA94"></path>
                <path d="M117.0967,37.3242 C117.0967,37.3242 121.9637,35.3662 122.7017,34.9962 C123.4407,34.6272 123.3737,33.4472 122.9717,32.8482 C122.4577,32.0892 121.5167,31.9812 121.5167,31.9812 L114.7877,33.2592 L117.0967,37.3242 Z" id="Fill-69" fill="#0087B3"></path>
                <path d="M115.3389,38.8286 C115.3389,39.2506 114.7489,39.5926 114.0189,39.5926 C113.2899,39.5926 112.6979,39.2506 112.6979,38.8286 C112.6979,38.4066 113.2899,38.0626 114.0189,38.0626 C114.7489,38.0626 115.3389,38.4066 115.3389,38.8286" id="Fill-71" fill="#FEFEFE"></path>
                <path d="M110.6357,36.0083 C110.6357,36.0083 111.4107,37.0233 111.9477,37.2023 C112.4857,37.3823 113.3217,37.2623 114.5167,36.2473 C115.7117,35.2313 117.5027,32.9623 117.5027,32.9623 L110.6357,36.0083 Z" id="Fill-73" fill="#00577F"></path>
                <path d="M110.2139,37.1543 C110.2139,37.1543 108.3569,38.9083 106.9109,39.3733 C105.8119,39.7263 104.7939,38.9013 104.2079,37.1773 C103.6589,35.5543 103.4519,34.0583 103.4519,34.0583 L106.3529,33.0083 L107.7569,36.1603 L110.9189,34.9443 L110.2139,37.1543 Z" id="Fill-75" fill="#0087B3"></path>
                <path d="M116.2646,23.876 C116.2646,23.876 114.0246,23.302 113.1336,22.081 C112.2436,20.86 112.2996,19.427 112.1456,18.439 C111.9966,17.491 110.8056,16.773 109.4346,17.706 C108.2016,18.546 107.0266,20.808 108.2806,22.457 C109.5346,24.107 112.1086,24.207 113.5596,24.239 C115.0106,24.272 116.2646,23.876 116.2646,23.876" id="Fill-77" fill="#D23F24"></path>
                <path d="M116.8916,25.0303 C116.8916,25.0303 116.5616,23.8763 116.3306,22.9523 C116.1536,22.2413 116.0476,21.8583 116.1146,21.0663 C116.1686,20.4013 116.3446,20.0103 116.3446,20.0103 C116.3446,20.0103 115.7376,19.3323 114.9596,19.1673 C114.4386,19.0573 113.8286,19.3943 113.8286,19.3943 L112.9986,22.2263 L116.8916,25.0303 Z" id="Fill-79" fill="#D23F24"></path>
            </g>
            <path d="M118.868,24.024 C118.448,24.621 117.887,26.271 118.678,27.229 L118.678,27.229 C119.401,28.108 119.992,28.246 121.007,28.604 L121.007,28.604 C121.581,28.806 123.814,28.006 123.814,28.006 L123.814,28.006 C123.814,28.006 122.8,27.528 122.262,26.394 L122.262,26.394 C121.606,25.01 121.71,24.061 121.528,23.584 L121.528,23.584 C121.384,23.202 121.028,23.015 120.604,23.015 L120.604,23.015 C120.031,23.015 119.335,23.356 118.868,24.024" id="Fill-82"></path>
            <g id="Group-186" transform="translate(90.000000, 13.650000)">
                <path d="M36.6279,15.3706 C36.6279,15.3706 37.7489,14.8426 38.5419,14.7766 C39.3329,14.7106 39.6629,14.7436 39.4969,15.1736 C39.3329,15.6016 38.7059,16.0966 38.7059,16.0966 C38.7059,16.0966 39.3659,15.9316 40.2239,16.4256 C41.0809,16.9216 41.0809,18.1756 39.5969,18.4386 C38.1119,18.7026 37.4519,18.4386 36.9579,17.5806 C36.4619,16.7236 36.6279,15.3706 36.6279,15.3706 L36.6279,15.3706 Z" id="Fill-84" fill="#910004"></path>
                <path d="M29.4893,20.541 C29.4893,20.541 27.5053,22.127 26.3213,24.071 C25.1373,26.014 25.4753,28.38 28.9403,27.873 C32.4053,27.366 35.8703,25.676 37.6433,23.986 C39.4193,22.296 39.9253,21.789 39.5033,20.69 C39.0813,19.591 37.9813,17.986 37.9813,17.986 L37.2213,16.297 L36.6613,15.536 C36.6613,15.536 34.4173,14.117 32.6593,14.269 C31.2163,14.394 30.7253,14.977 30.2083,15.79 C29.6163,16.719 29.6163,17.648 29.6163,17.648 L29.4893,20.541 Z" id="Fill-86" fill="#F6BA94"></path>
                <path d="M31.0439,19.9141 C31.0439,19.9141 30.0129,21.0741 29.5669,22.1681 C29.1239,23.2641 29.7879,23.3641 31.1079,22.2681 C32.4249,21.1741 32.6899,20.5011 32.6899,20.5011 L31.0439,19.9141 Z" id="Fill-88" fill="#231815"></path>
                <path d="M32.2275,20.896 C32.2275,20.896 31.1295,21.197 30.5735,21.529 C30.2335,21.732 30.0045,22.059 30.0615,22.434 C30.1025,22.716 30.5415,22.583 30.9935,22.176 C31.5475,21.68 32.2275,20.896 32.2275,20.896" id="Fill-90" fill="#D23F24"></path>
                <path d="M29.6338,18.835 C29.6338,18.835 29.6338,20.268 29.9908,20.567 C30.3508,20.866 30.4108,20.746 30.9478,20.627 C31.4858,20.507 31.9638,20.149 31.9638,20.149 L30.6498,18.596 L29.6338,18.835" id="Fill-92" fill="#FEFEFE"></path>
                <path d="M30.5674,17.2212 C31.0754,17.2212 31.4854,16.8162 31.4854,16.3162 C31.4854,15.8172 31.0754,15.4102 30.5674,15.4102 C30.5304,15.4102 30.4934,15.4172 30.4564,15.4212 C30.3724,15.5382 30.2904,15.6612 30.2084,15.7902 C29.9934,16.1272 29.8564,16.4642 29.7704,16.7572 C29.9264,17.0332 30.2234,17.2212 30.5674,17.2212" id="Fill-94" fill="#BF8065"></path>
                <path d="M30.2275,19.2305 C30.2275,19.2305 30.6235,20.4505 31.6125,21.0785 C32.6025,21.7045 33.7905,21.3415 34.8015,20.2525 C35.6805,19.3045 35.6045,17.5155 35.6045,17.5155 C35.6045,17.5155 35.3735,18.3395 34.8795,18.6045 C34.3835,18.8675 33.8235,18.8675 33.3295,18.4385 C32.8325,18.0095 32.3725,17.7785 31.6785,17.6145 C30.9855,17.4495 29.7645,17.3835 29.1065,18.0095 C28.4465,18.6365 28.2005,19.2265 27.9425,19.6385 C27.7095,20.0115 27.4775,20.2295 27.1145,19.9665 C26.7505,19.7015 26.6845,19.1745 26.6845,19.1745 C26.6845,19.1745 26.6945,19.9875 27.0775,20.4575 C27.6395,21.1435 28.4325,21.3535 29.1555,20.9145 C30.3315,20.2005 30.2275,19.2305 30.2275,19.2305" id="Fill-96" fill="#D23F24"></path>
                <path d="M34.3096,16.7744 C34.3096,16.6724 34.4326,16.5904 34.5846,16.5904 C34.6646,16.5904 34.7356,16.6134 34.7866,16.6494 C34.6746,16.4414 34.3996,16.2934 34.0716,16.2934 C33.6496,16.2934 33.3056,16.5404 33.3056,16.8444 C33.3056,17.1494 33.6496,17.3954 34.0716,17.3954 C34.4936,17.3954 34.8326,17.1504 34.8366,16.8484 C34.7936,16.9124 34.6986,16.9584 34.5846,16.9584 C34.4326,16.9584 34.3096,16.8754 34.3096,16.7744" id="Fill-98" fill="#231815"></path>
                <path d="M31.9111,17.2246 C31.9111,17.7166 31.3641,18.1156 30.6881,18.1156 C30.0151,18.1156 29.4681,17.7166 29.4681,17.2246 C29.4681,16.7326 30.0151,16.3336 30.6881,16.3336 C31.3641,16.3336 31.9111,16.7326 31.9111,17.2246" id="Fill-100" fill="#F6BA94"></path>
                <path d="M39.0693,17.0371 C39.0693,17.6101 38.5833,18.0761 37.9813,18.0761 C37.3783,18.0761 36.8913,17.6101 36.8913,17.0371 C36.8913,16.4621 37.3783,15.9971 37.9813,15.9971 C38.5833,15.9971 39.0693,16.4621 39.0693,17.0371" id="Fill-102" fill="#F6BA94"></path>
                <path d="M33.4873,15.5996 L34.7533,15.7676 C34.7533,15.7676 34.7533,15.3116 34.2983,15.1756 C33.8413,15.0386 33.5493,14.9636 33.4773,15.1296 C33.3823,15.3416 33.4873,15.5996 33.4873,15.5996" id="Fill-104" fill="#231815"></path>
                <polygon id="Fill-106" fill="#910004" points="36.6611 15.5356 37.0981 17.5366 37.7961 17.4836 37.2061 16.1416"></polygon>
                <path d="M35.0889,27.8823 L35.2299,27.8473 L35.1069,27.6443 L35.1049,27.6453 L35.0889,27.8823 Z M35.0709,28.1103 L34.9499,28.1413 L35.0089,27.5353 L35.1419,27.5033 L35.4759,28.0083 L35.3509,28.0403 L35.2859,27.9343 L35.0809,27.9863 L35.0709,28.1103 Z" id="Fill-108" fill="#FEFEFE"></path>
                <path d="M35.5127,27.8174 C35.5207,27.8484 35.5517,27.9024 35.6537,27.8784 C35.7077,27.8634 35.7647,27.8364 35.7507,27.7764 C35.7397,27.7344 35.6947,27.7324 35.6317,27.7344 L35.5717,27.7344 C35.4757,27.7354 35.3837,27.7374 35.3527,27.6154 C35.3367,27.5544 35.3447,27.4364 35.5227,27.3914 C35.6927,27.3474 35.7667,27.4484 35.7837,27.5154 L35.6727,27.5444 C35.6627,27.5204 35.6397,27.4634 35.5377,27.4894 C35.4947,27.5004 35.4467,27.5294 35.4597,27.5804 C35.4697,27.6234 35.5067,27.6234 35.5327,27.6234 L35.6767,27.6214 C35.7547,27.6214 35.8327,27.6354 35.8587,27.7344 C35.8997,27.9014 35.7337,27.9594 35.6847,27.9714 C35.4837,28.0224 35.4187,27.9144 35.4017,27.8454 L35.5127,27.8174 Z" id="Fill-110" fill="#FEFEFE"></path>
                <path d="M35.9521,27.7075 C35.9601,27.7385 35.9891,27.7925 36.0911,27.7685 C36.1451,27.7535 36.2041,27.7255 36.1881,27.6665 C36.1771,27.6235 36.1341,27.6225 36.0711,27.6235 L36.0091,27.6245 C35.9131,27.6255 35.8211,27.6275 35.7901,27.5045 C35.7741,27.4435 35.7821,27.3265 35.9621,27.2815 C36.1321,27.2385 36.2041,27.3375 36.2231,27.4065 L36.1101,27.4335 C36.1021,27.4095 36.0771,27.3535 35.9771,27.3785 C35.9321,27.3905 35.8841,27.4195 35.8971,27.4695 C35.9071,27.5125 35.9461,27.5135 35.9701,27.5135 L36.1141,27.5125 C36.1941,27.5115 36.2701,27.5245 36.2961,27.6245 C36.3391,27.7915 36.1731,27.8495 36.1241,27.8615 C35.9211,27.9125 35.8561,27.8035 35.8411,27.7355 L35.9521,27.7075 Z" id="Fill-112" fill="#FEFEFE"></path>
                <path d="M36.4443,27.5415 L36.5853,27.5055 L36.4623,27.3035 L36.4623,27.3045 L36.4443,27.5415 Z M36.4283,27.7685 L36.3053,27.7995 L36.3643,27.1955 L36.4973,27.1625 L36.8333,27.6675 L36.7063,27.6995 L36.6413,27.5945 L36.4383,27.6455 L36.4283,27.7685 Z" id="Fill-114" fill="#FEFEFE"></path>
                <path d="M37.0771,27.3799 L37.2161,27.3449 L37.0951,27.1509 L37.0931,27.1509 L37.0771,27.3799 Z M37.0591,27.6059 L36.9361,27.6429 L36.9991,27.0439 L37.1281,27.0149 L37.4501,27.4959 L37.3331,27.5289 L37.2701,27.4289 L37.0711,27.4829 L37.0591,27.6059 Z" id="Fill-116" fill="#FEFEFE"></path>
                <path d="M37.5322,27.376 L37.6572,27.342 C37.7062,27.328 37.7272,27.298 37.7142,27.248 C37.7022,27.205 37.6612,27.196 37.6262,27.206 L37.4952,27.239 L37.5322,27.376 Z M37.4732,27.152 L37.5932,27.124 C37.6322,27.114 37.6592,27.09 37.6472,27.05 C37.6372,27.009 37.6062,27.004 37.5592,27.014 L37.4422,27.041 L37.4732,27.152 Z M37.3192,26.975 L37.5592,26.922 C37.6752,26.897 37.7232,26.966 37.7392,27.017 C37.7572,27.087 37.7252,27.116 37.7102,27.131 C37.7722,27.14 37.8002,27.184 37.8132,27.233 C37.8232,27.273 37.8192,27.314 37.8022,27.347 C37.7822,27.383 37.7622,27.407 37.6652,27.435 L37.4562,27.494 L37.3192,26.975 Z" id="Fill-118" fill="#FEFEFE"></path>
                <polygon id="Fill-120" fill="#FEFEFE" points="37.9404 27.2598 38.1574 27.2008 38.1804 27.2868 37.8724 27.3758 37.7374 26.8838 37.8334 26.8628"></polygon>
                <path d="M38.2959,27.1792 C38.3409,27.1672 38.3939,27.1172 38.3579,26.9902 C38.3209,26.8632 38.2489,26.8462 38.2019,26.8572 C38.1569,26.8672 38.1009,26.9142 38.1379,27.0452 C38.1749,27.1772 38.2489,27.1922 38.2959,27.1792 M38.1809,26.7752 C38.2339,26.7642 38.3779,26.7602 38.4389,26.9702 C38.5009,27.1812 38.3699,27.2462 38.3189,27.2612 C38.2649,27.2772 38.1099,27.2922 38.0479,27.0672 C37.9869,26.8462 38.1259,26.7872 38.1809,26.7752" id="Fill-122" fill="#FEFEFE"></path>
                <polygon id="Fill-124" fill="#FEFEFE" points="38.6885 27.1431 38.6125 27.1641 38.5635 26.9961 38.3525 26.7511 38.4465 26.7301 38.5795 26.9041 38.5965 26.6981 38.6825 26.6801 38.6415 26.9771"></polygon>
                <path d="M0.7373,44.396 L0.5503,44.546 C0.5503,44.546 3.2173,44.567 3.5923,44.567 C3.9693,44.567 3.6353,44.434 2.9583,44.32 C2.2803,44.208 0.7373,44.396 0.7373,44.396" id="Fill-126" fill="#9F9FA0"></path>
                <path d="M52.1689,2.6982 C52.1569,2.2942 52.0859,1.9952 51.9549,1.8022 C51.8239,1.6092 51.6189,1.5172 51.3419,1.5252 C51.0699,1.5332 50.8729,1.6382 50.7479,1.8412 C50.6239,2.0442 50.5679,2.3512 50.5799,2.7612 C50.5919,3.1652 50.6629,3.4632 50.7959,3.6552 C50.9279,3.8452 51.1329,3.9382 51.4109,3.9292 C51.6829,3.9222 51.8789,3.8172 52.0019,3.6152 C52.1249,3.4142 52.1809,3.1082 52.1689,2.6982 M52.8319,2.6352 C52.8399,2.8972 52.8129,3.1332 52.7519,3.3422 C52.6909,3.5512 52.6019,3.7272 52.4809,3.8732 C52.3609,4.0172 52.2129,4.1302 52.0349,4.2102 C51.8569,4.2912 51.6539,4.3352 51.4279,4.3412 C50.9549,4.3552 50.5879,4.2312 50.3279,3.9722 C50.0679,3.7112 49.9319,3.3292 49.9169,2.8242 C49.9089,2.5622 49.9359,2.3262 49.9959,2.1172 C50.0569,1.9092 50.1479,1.7312 50.2699,1.5852 C50.3909,1.4382 50.5399,1.3242 50.7189,1.2432 C50.8959,1.1632 51.0989,1.1202 51.3259,1.1142 C51.7979,1.1002 52.1639,1.2242 52.4219,1.4862 C52.6809,1.7472 52.8169,2.1302 52.8319,2.6352" id="Fill-128" fill="#FEFEFE"></path>
                <path d="M54.5293,4.2041 L54.4923,2.9071 C54.4903,2.8481 54.4883,2.7901 54.4843,2.7341 C54.4823,2.6781 54.4753,2.6291 54.4663,2.5891 C54.4383,2.4831 54.3883,2.4081 54.3143,2.3621 C54.2403,2.3171 54.1443,2.2961 54.0293,2.3001 C53.9783,2.3011 53.9333,2.3071 53.8943,2.3171 C53.8533,2.3271 53.8183,2.3361 53.7853,2.3461 C53.7503,2.3591 53.7183,2.3721 53.6883,2.3851 L53.7413,4.2261 L53.1213,4.2441 L53.0563,1.9771 L53.6583,1.9601 L53.6663,2.1901 C53.7053,2.1391 53.7573,2.0911 53.8203,2.0481 C53.8763,2.0111 53.9443,1.9761 54.0263,1.9451 C54.1073,1.9131 54.2113,1.8951 54.3353,1.8911 C54.4533,1.8881 54.5543,1.9011 54.6383,1.9301 C54.7243,1.9581 54.7953,1.9961 54.8533,2.0431 C54.9103,2.0901 54.9553,2.1431 54.9883,2.2041 C55.0213,2.2631 55.0463,2.3211 55.0623,2.3761 C55.0823,2.4561 55.0943,2.5371 55.0993,2.6191 C55.1053,2.7021 55.1093,2.7671 55.1103,2.8181 L55.1493,4.1861 L54.5293,4.2041 Z" id="Fill-130" fill="#FEFEFE"></path>
                <path d="M57.3535,4.1104 C57.2575,4.1394 57.1315,4.1564 56.9785,4.1604 C56.7915,4.1664 56.6425,4.1444 56.5295,4.0964 C56.4165,4.0474 56.3325,3.9534 56.2775,3.8134 C56.2575,3.7604 56.2445,3.6924 56.2365,3.6084 C56.2275,3.5244 56.2225,3.4394 56.2195,3.3544 L56.1875,2.2294 L55.9045,2.2374 L55.8965,1.9534 L55.9575,1.9304 C56.0725,1.8884 56.1665,1.8174 56.2405,1.7174 C56.3145,1.6184 56.3595,1.5104 56.3765,1.3954 L56.3805,1.3554 L56.7835,1.3434 L56.7985,1.8744 L57.4665,1.8554 L57.4765,2.1924 L56.8075,2.2114 L56.8405,3.3764 C56.8425,3.4324 56.8475,3.4854 56.8545,3.5354 C56.8615,3.5854 56.8765,3.6284 56.9005,3.6644 C56.9235,3.7004 56.9555,3.7294 56.9985,3.7504 C57.0405,3.7714 57.0975,3.7804 57.1715,3.7784 C57.2425,3.7774 57.3055,3.7644 57.3615,3.7424 C57.3905,3.7334 57.4155,3.7214 57.4355,3.7094 L57.5465,4.0474 C57.5145,4.0594 57.4515,4.0804 57.3535,4.1104" id="Fill-132" fill="#FEFEFE"></path>
                <path d="M59.0508,4.0747 L59.0138,2.7777 C59.0118,2.7187 59.0088,2.6607 59.0058,2.6047 C59.0028,2.5497 58.9958,2.5007 58.9868,2.4597 C58.9588,2.3537 58.9088,2.2787 58.8348,2.2337 C58.7618,2.1877 58.6658,2.1677 58.5508,2.1707 C58.4998,2.1717 58.4548,2.1777 58.4148,2.1877 C58.3748,2.1977 58.3398,2.2077 58.3068,2.2177 C58.2718,2.2307 58.2388,2.2427 58.2088,2.2557 L58.2618,4.0977 L57.6428,4.1157 L57.5448,0.6877 L58.1638,0.6707 L58.2038,2.0607 C58.2408,2.0097 58.2888,1.9617 58.3518,1.9187 C58.4028,1.8827 58.4708,1.8477 58.5538,1.8157 C58.6368,1.7837 58.7398,1.7657 58.8608,1.7627 C58.9758,1.7597 59.0748,1.7717 59.1598,1.8007 C59.2458,1.8287 59.3168,1.8667 59.3738,1.9137 C59.4318,1.9617 59.4768,2.0147 59.5098,2.0747 C59.5418,2.1347 59.5668,2.1917 59.5828,2.2467 C59.6038,2.3267 59.6158,2.4077 59.6208,2.4907 C59.6268,2.5727 59.6298,2.6387 59.6308,2.6887 L59.6698,4.0567 L59.0508,4.0747 Z" id="Fill-134" fill="#FEFEFE"></path>
                <path d="M61.2744,2.5049 C61.2644,2.1689 61.1304,2.0039 60.8734,2.0109 C60.7614,2.0139 60.6774,2.0469 60.6234,2.1089 C60.5664,2.1719 60.5294,2.2549 60.5074,2.3589 C60.4944,2.4149 60.4884,2.4679 60.4884,2.5189 C60.4884,2.5679 60.4884,2.6039 60.4894,2.6249 L61.2774,2.6019 L61.2744,2.5049 Z M60.4944,2.9389 L60.4954,2.9839 C60.5024,3.2049 60.5724,3.3769 60.7074,3.5009 C60.8414,3.6239 61.0194,3.6829 61.2424,3.6759 C61.3184,3.6739 61.3864,3.6669 61.4474,3.6569 C61.5074,3.6459 61.5574,3.6329 61.5984,3.6169 C61.6454,3.6009 61.6864,3.5819 61.7204,3.5609 L61.8504,3.8979 C61.8004,3.9259 61.7384,3.9489 61.6624,3.9689 C61.5974,3.9889 61.5164,4.0069 61.4204,4.0229 C61.3224,4.0389 61.2084,4.0489 61.0754,4.0529 C60.9184,4.0569 60.7694,4.0429 60.6274,4.0099 C60.4834,3.9779 60.3574,3.9179 60.2464,3.8329 C60.1364,3.7469 60.0464,3.6309 59.9774,3.4839 C59.9084,3.3369 59.8714,3.1489 59.8644,2.9219 C59.8614,2.8159 59.8714,2.6939 59.8934,2.5579 C59.9164,2.4209 59.9644,2.2909 60.0374,2.1659 C60.1104,2.0409 60.2164,1.9359 60.3554,1.8489 C60.4964,1.7619 60.6804,1.7149 60.9104,1.7089 C61.1344,1.7019 61.3114,1.7339 61.4404,1.8069 C61.5704,1.8789 61.6714,1.9749 61.7464,2.0969 C61.8104,2.2079 61.8534,2.3319 61.8724,2.4699 C61.8904,2.6079 61.9024,2.7399 61.9054,2.8639 L61.9064,2.8989 L60.4944,2.9389 Z" id="Fill-136" fill="#FEFEFE"></path>
                <path d="M64.1465,2.1792 C64.1275,2.1652 64.0875,2.1442 64.0245,2.1162 C63.9605,2.0882 63.8785,2.0762 63.7755,2.0792 C63.7225,2.0802 63.6745,2.0862 63.6335,2.0962 C63.5925,2.1062 63.5585,2.1162 63.5295,2.1262 C63.4965,2.1392 63.4685,2.1532 63.4455,2.1682 L63.4965,3.9482 L62.8765,3.9662 L62.8115,1.6992 L63.4145,1.6812 L63.4225,1.9832 C63.4535,1.9202 63.4945,1.8622 63.5465,1.8102 C63.5895,1.7682 63.6445,1.7282 63.7105,1.6902 C63.7775,1.6532 63.8595,1.6332 63.9575,1.6302 C64.0285,1.6282 64.0875,1.6332 64.1345,1.6432 C64.1825,1.6542 64.2225,1.6652 64.2555,1.6792 L64.1465,2.1792 Z" id="Fill-138" fill="#FEFEFE"></path>
                <path d="M65.8105,2.752 C65.8065,2.622 65.7955,2.506 65.7775,2.405 C65.7575,2.304 65.7285,2.218 65.6895,2.148 C65.6505,2.079 65.5995,2.026 65.5395,1.991 C65.4765,1.956 65.4005,1.94 65.3085,1.942 C65.1315,1.947 65.0105,2.018 64.9455,2.154 C64.8785,2.291 64.8495,2.496 64.8575,2.77 C64.8615,2.9 64.8735,3.017 64.8925,3.12 C64.9125,3.223 64.9415,3.309 64.9805,3.378 C65.0185,3.449 65.0695,3.501 65.1325,3.536 C65.1955,3.571 65.2735,3.587 65.3655,3.585 C65.5415,3.58 65.6625,3.508 65.7265,3.371 C65.7905,3.232 65.8185,3.026 65.8105,2.752 M66.4515,2.694 C66.4565,2.854 66.4395,3.006 66.4025,3.154 C66.3655,3.301 66.3035,3.433 66.2165,3.549 C66.1295,3.665 66.0155,3.759 65.8725,3.832 C65.7305,3.903 65.5545,3.942 65.3485,3.948 C64.9945,3.959 64.7195,3.864 64.5255,3.664 C64.3305,3.464 64.2285,3.188 64.2175,2.833 C64.2125,2.674 64.2295,2.52 64.2665,2.373 C64.3035,2.226 64.3675,2.094 64.4555,1.978 C64.5425,1.861 64.6585,1.767 64.8005,1.695 C64.9435,1.623 65.1195,1.584 65.3255,1.578 C65.6795,1.568 65.9535,1.663 66.1465,1.863 C66.3395,2.063 66.4415,2.34 66.4515,2.694" id="Fill-140" fill="#FEFEFE"></path>
                <path d="M67.832,2.7783 L67.793,2.7793 C67.777,2.7803 67.756,2.7803 67.728,2.7793 C67.7,2.7783 67.666,2.7783 67.624,2.7803 C67.557,2.7823 67.494,2.7903 67.438,2.8053 C67.383,2.8203 67.333,2.8463 67.289,2.8823 C67.246,2.9193 67.217,2.9653 67.201,3.0183 C67.186,3.0713 67.178,3.1233 67.179,3.1743 C67.181,3.2443 67.194,3.3023 67.219,3.3453 C67.244,3.3893 67.275,3.4243 67.312,3.4493 C67.351,3.4753 67.393,3.4923 67.437,3.5013 C67.484,3.5103 67.531,3.5143 67.578,3.5123 C67.664,3.5103 67.731,3.5013 67.781,3.4853 C67.808,3.4753 67.831,3.4653 67.852,3.4563 L67.832,2.7783 Z M67.875,3.8233 L67.869,3.6193 C67.832,3.6673 67.787,3.7093 67.735,3.7433 C67.689,3.7733 67.63,3.8023 67.559,3.8273 C67.486,3.8533 67.399,3.8683 67.296,3.8713 C67.08,3.8773 66.906,3.8223 66.775,3.7083 C66.644,3.5933 66.574,3.4333 66.568,3.2273 C66.564,3.1033 66.583,2.9953 66.623,2.9033 C66.664,2.8123 66.725,2.7363 66.806,2.6743 C66.898,2.6043 67.006,2.5583 67.127,2.5373 C67.249,2.5153 67.377,2.5033 67.51,2.4993 C67.548,2.4983 67.584,2.4983 67.62,2.4983 C67.656,2.4993 67.689,2.5003 67.723,2.5023 C67.755,2.5043 67.789,2.5043 67.824,2.5033 L67.82,2.3573 C67.818,2.3013 67.814,2.2493 67.809,2.1983 C67.803,2.1493 67.793,2.1063 67.776,2.0703 C67.744,1.9953 67.695,1.9443 67.628,1.9183 C67.561,1.8923 67.478,1.8803 67.381,1.8823 C67.305,1.8853 67.234,1.8933 67.171,1.9063 C67.108,1.9203 67.055,1.9353 67.011,1.9513 C66.958,1.9703 66.912,1.9913 66.871,2.0123 L66.736,1.6663 C66.795,1.6413 66.864,1.6183 66.943,1.5983 C67.011,1.5813 67.094,1.5653 67.189,1.5473 C67.287,1.5293 67.4,1.5193 67.53,1.5153 C67.678,1.5103 67.801,1.5213 67.898,1.5463 C67.998,1.5723 68.077,1.6043 68.139,1.6443 C68.201,1.6833 68.248,1.7273 68.282,1.7753 C68.316,1.8233 68.342,1.8683 68.356,1.9123 C68.369,1.9483 68.38,1.9883 68.387,2.0343 C68.394,2.0793 68.4,2.1263 68.404,2.1753 C68.408,2.2243 68.411,2.2723 68.412,2.3203 C68.414,2.3693 68.415,2.4133 68.416,2.4513 L68.455,3.8063 L67.875,3.8233 Z" id="Fill-142" fill="#FEFEFE"></path>
                <path d="M70.1621,1.8169 C70.1411,1.8149 70.1191,1.8109 70.0961,1.8059 C70.0741,1.7999 70.0491,1.7959 70.0191,1.7949 C69.9901,1.7929 69.9581,1.7919 69.9221,1.7929 C69.7991,1.7959 69.6951,1.8209 69.6111,1.8659 C69.5291,1.9109 69.4631,1.9709 69.4141,2.0459 C69.3631,2.1209 69.3301,2.2109 69.3121,2.3139 C69.2951,2.4169 69.2871,2.5279 69.2911,2.6459 C69.2971,2.8789 69.3501,3.0639 69.4491,3.2009 C69.5471,3.3379 69.6931,3.4039 69.8891,3.3979 C69.9371,3.3969 69.9831,3.3929 70.0231,3.3849 C70.0621,3.3789 70.0961,3.3699 70.1231,3.3609 C70.1541,3.3479 70.1821,3.3349 70.2051,3.3229 L70.1621,1.8169 Z M70.2351,3.7559 L70.2281,3.5229 C70.1911,3.5739 70.1461,3.6209 70.0911,3.6609 C70.0411,3.6949 69.9781,3.7269 69.9001,3.7559 C69.8231,3.7849 69.7261,3.8009 69.6111,3.8049 C69.3281,3.8129 69.1001,3.7249 68.9261,3.5409 C68.7521,3.3569 68.6601,3.0799 68.6501,2.7109 C68.6441,2.5219 68.6671,2.3519 68.7181,2.2019 C68.7671,2.0509 68.8391,1.9219 68.9301,1.8149 C69.0211,1.7069 69.1331,1.6239 69.2621,1.5639 C69.3921,1.5039 69.5311,1.4709 69.6821,1.4669 C69.7671,1.4639 69.8401,1.4679 69.8971,1.4769 C69.9551,1.4849 70.0041,1.4949 70.0431,1.5049 C70.0881,1.5199 70.1251,1.5339 70.1541,1.5509 L70.1201,0.3289 L70.7401,0.3109 L70.8381,3.7379 L70.2351,3.7559 Z" id="Fill-144" fill="#FEFEFE"></path>
                <path d="M51.2324,9.603 C51.1344,9.632 51.0094,9.649 50.8554,9.653 C50.6704,9.659 50.5214,9.637 50.4074,9.589 C50.2934,9.541 50.2094,9.446 50.1554,9.306 C50.1364,9.253 50.1234,9.185 50.1144,9.101 C50.1054,9.017 50.0994,8.932 50.0974,8.846 L50.0654,7.722 L49.7824,7.73 L49.7734,7.447 L49.8364,7.423 C49.9494,7.381 50.0434,7.311 50.1174,7.21 C50.1914,7.111 50.2374,7.003 50.2544,6.888 L50.2574,6.848 L50.6604,6.836 L50.6754,7.368 L51.3434,7.349 L51.3534,7.685 L50.6854,7.704 L50.7184,8.869 C50.7204,8.925 50.7244,8.978 50.7324,9.028 C50.7394,9.078 50.7544,9.121 50.7774,9.157 C50.8004,9.193 50.8344,9.222 50.8754,9.243 C50.9184,9.264 50.9754,9.273 51.0484,9.271 C51.1204,9.269 51.1834,9.257 51.2384,9.235 C51.2674,9.226 51.2934,9.214 51.3124,9.202 L51.4244,9.54 C51.3924,9.553 51.3284,9.574 51.2324,9.603" id="Fill-146" fill="#FEFEFE"></path>
                <path d="M52.9531,8.4375 C52.9491,8.3075 52.9371,8.1915 52.9191,8.0895 C52.9001,7.9885 52.8711,7.9035 52.8321,7.8335 C52.7931,7.7635 52.7421,7.7105 52.6821,7.6755 C52.6191,7.6405 52.5431,7.6245 52.4511,7.6265 C52.2731,7.6315 52.1521,7.7025 52.0881,7.8385 C52.0211,7.9755 51.9921,8.1815 52.0001,8.4555 C52.0041,8.5855 52.0161,8.7015 52.0351,8.8045 C52.0551,8.9075 52.0841,8.9935 52.1231,9.0625 C52.1611,9.1335 52.2121,9.1855 52.2751,9.2215 C52.3381,9.2555 52.4161,9.2725 52.5071,9.2695 C52.6831,9.2645 52.8051,9.1935 52.8691,9.0555 C52.9331,8.9175 52.9611,8.7115 52.9531,8.4375 M53.5941,8.3785 C53.5991,8.5385 53.5821,8.6915 53.5451,8.8385 C53.5081,8.9855 53.4451,9.1175 53.3591,9.2335 C53.2711,9.3505 53.1581,9.4445 53.0151,9.5165 C52.8731,9.5885 52.6971,9.6275 52.4911,9.6335 C52.1371,9.6445 51.8621,9.5485 51.6681,9.3485 C51.4731,9.1495 51.3701,8.8725 51.3601,8.5185 C51.3551,8.3585 51.3711,8.2055 51.4091,8.0575 C51.4451,7.9105 51.5101,7.7785 51.5981,7.6625 C51.6851,7.5465 51.8011,7.4525 51.9431,7.3805 C52.0861,7.3085 52.2611,7.2695 52.4671,7.2635 C52.8221,7.2535 53.0961,7.3485 53.2891,7.5475 C53.4821,7.7475 53.5841,8.0245 53.5941,8.3785" id="Fill-148" fill="#FEFEFE"></path>
                <path d="M55.7305,9.4746 C55.6325,9.5036 55.5075,9.5206 55.3555,9.5246 C55.1685,9.5306 55.0195,9.5086 54.9065,9.4606 C54.7925,9.4126 54.7085,9.3176 54.6545,9.1776 C54.6345,9.1246 54.6215,9.0566 54.6135,8.9726 C54.6035,8.8886 54.5985,8.8036 54.5955,8.7176 L54.5645,7.5936 L54.2815,7.6016 L54.2725,7.3186 L54.3345,7.2946 C54.4485,7.2526 54.5425,7.1826 54.6165,7.0816 C54.6905,6.9826 54.7365,6.8746 54.7535,6.7596 L54.7555,6.7196 L55.1605,6.7076 L55.1745,7.2396 L55.8425,7.2206 L55.8525,7.5566 L55.1845,7.5756 L55.2175,8.7406 C55.2185,8.7966 55.2235,8.8496 55.2305,8.8996 C55.2385,8.9496 55.2535,8.9926 55.2775,9.0286 C55.2995,9.0646 55.3325,9.0936 55.3755,9.1146 C55.4165,9.1356 55.4745,9.1446 55.5475,9.1426 C55.6195,9.1406 55.6815,9.1286 55.7375,9.1066 C55.7665,9.0976 55.7915,9.0856 55.8115,9.0736 L55.9235,9.4116 C55.8905,9.4246 55.8265,9.4456 55.7305,9.4746" id="Fill-150" fill="#FEFEFE"></path>
                <path d="M57.4277,9.4395 L57.3907,8.1425 C57.3887,8.0835 57.3857,8.0255 57.3827,7.9695 C57.3787,7.9135 57.3727,7.8645 57.3637,7.8235 C57.3357,7.7185 57.2847,7.6425 57.2117,7.5975 C57.1377,7.5525 57.0427,7.5315 56.9267,7.5345 C56.8757,7.5365 56.8307,7.5425 56.7907,7.5515 C56.7517,7.5625 56.7147,7.5715 56.6837,7.5815 C56.6487,7.5945 56.6157,7.6075 56.5857,7.6195 L56.6387,9.4615 L56.0197,9.4805 L55.9207,6.0525 L56.5407,6.0345 L56.5807,7.4245 C56.6167,7.3745 56.6657,7.3265 56.7267,7.2835 C56.7797,7.2465 56.8467,7.2115 56.9297,7.1805 C57.0137,7.1485 57.1157,7.1305 57.2367,7.1265 C57.3517,7.1245 57.4517,7.1365 57.5367,7.1655 C57.6227,7.1935 57.6937,7.2315 57.7507,7.2785 C57.8087,7.3255 57.8537,7.3785 57.8857,7.4385 C57.9177,7.4985 57.9437,7.5565 57.9587,7.6115 C57.9797,7.6905 57.9917,7.7715 57.9977,7.8545 C58.0027,7.9375 58.0057,8.0035 58.0077,8.0535 L58.0467,9.4215 L57.4277,9.4395 Z" id="Fill-152" fill="#FEFEFE"></path>
                <path d="M59.6504,7.8691 C59.6404,7.5331 59.5064,7.3681 59.2484,7.3751 C59.1364,7.3781 59.0534,7.4111 58.9984,7.4731 C58.9434,7.5361 58.9054,7.6191 58.8844,7.7231 C58.8714,7.7791 58.8654,7.8321 58.8654,7.8831 L58.8654,7.9891 L59.6534,7.9671 L59.6504,7.8691 Z M58.8704,8.3041 L58.8714,8.3481 C58.8774,8.5691 58.9484,8.7411 59.0834,8.8651 C59.2174,8.9881 59.3964,9.0471 59.6174,9.0401 C59.6944,9.0381 59.7634,9.0311 59.8234,9.0211 C59.8834,9.0101 59.9334,8.9971 59.9744,8.9811 C60.0214,8.9651 60.0624,8.9461 60.0974,8.9241 L60.2264,9.2621 C60.1774,9.2901 60.1154,9.3141 60.0394,9.3341 C59.9744,9.3531 59.8924,9.3711 59.7964,9.3881 C59.6994,9.4031 59.5844,9.4131 59.4514,9.4171 C59.2954,9.4221 59.1444,9.4081 59.0024,9.3741 C58.8594,9.3421 58.7334,9.2831 58.6234,9.1971 C58.5114,9.1111 58.4214,8.9951 58.3534,8.8481 C58.2844,8.7011 58.2464,8.5141 58.2404,8.2861 C58.2364,8.1801 58.2464,8.0581 58.2694,7.9221 C58.2924,7.7851 58.3394,7.6551 58.4144,7.5301 C58.4864,7.4051 58.5934,7.3001 58.7324,7.2131 C58.8724,7.1261 59.0564,7.0791 59.2864,7.0731 C59.5104,7.0671 59.6874,7.0991 59.8164,7.1711 C59.9454,7.2431 60.0474,7.3391 60.1234,7.4611 C60.1874,7.5721 60.2284,7.6961 60.2484,7.8341 C60.2664,7.9731 60.2774,8.1041 60.2814,8.2281 L60.2824,8.2641 L58.8704,8.3041 Z" id="Fill-154" fill="#FEFEFE"></path>
                <path d="M62.3613,6.2808 C62.3433,6.2728 62.3233,6.2638 62.2993,6.2558 C62.2783,6.2508 62.2543,6.2448 62.2263,6.2378 C62.1973,6.2308 62.1663,6.2288 62.1313,6.2298 C62.0563,6.2318 62.0003,6.2448 61.9613,6.2698 C61.9223,6.2948 61.8903,6.3278 61.8683,6.3698 C61.8483,6.4058 61.8373,6.4518 61.8343,6.5088 C61.8323,6.5648 61.8323,6.6348 61.8343,6.7208 L61.8433,7.0488 L62.3083,7.0358 L62.3183,7.3718 L61.8533,7.3848 L61.9083,9.3118 L61.2973,9.3288 L61.2423,7.4028 L60.9593,7.4108 L60.9493,7.0748 L61.2323,7.0668 L61.2283,6.9468 C61.2283,6.9148 61.2263,6.8748 61.2253,6.8268 C61.2243,6.7798 61.2243,6.7298 61.2263,6.6768 C61.2263,6.6238 61.2303,6.5718 61.2343,6.5208 C61.2393,6.4708 61.2463,6.4248 61.2573,6.3828 C61.3023,6.2218 61.3833,6.0998 61.5013,6.0148 C61.6193,5.9308 61.7833,5.8848 61.9963,5.8788 C62.0723,5.8768 62.1393,5.8798 62.1973,5.8868 C62.2563,5.8938 62.3043,5.9018 62.3423,5.9088 C62.3863,5.9198 62.4253,5.9298 62.4593,5.9418 L62.3613,6.2808 Z" id="Fill-156" fill="#FEFEFE"></path>
                <path d="M63.8027,9.2578 L63.7957,9.0228 C63.7557,9.0768 63.7047,9.1258 63.6407,9.1688 C63.5857,9.2058 63.5167,9.2408 63.4337,9.2728 C63.3497,9.3038 63.2487,9.3218 63.1307,9.3258 C62.9587,9.3308 62.8067,9.2958 62.6717,9.2208 C62.5367,9.1468 62.4467,9.0228 62.3997,8.8498 C62.3767,8.7648 62.3637,8.6768 62.3597,8.5878 C62.3557,8.4968 62.3517,8.4308 62.3507,8.3858 L62.3127,7.0308 L62.9367,7.0128 L62.9737,8.3198 C62.9767,8.3938 62.9787,8.4518 62.9837,8.4958 C62.9877,8.5408 62.9927,8.5818 62.9997,8.6198 C63.0447,8.8258 63.1897,8.9248 63.4337,8.9178 C63.4847,8.9168 63.5297,8.9118 63.5687,8.9038 C63.6087,8.8948 63.6447,8.8848 63.6767,8.8758 C63.7107,8.8628 63.7437,8.8478 63.7737,8.8328 L63.7207,6.9908 L64.3397,6.9728 L64.4057,9.2398 L63.8027,9.2578 Z" id="Fill-158" fill="#FEFEFE"></path>
                <path d="M65.9238,9.1841 C65.8258,9.2131 65.7008,9.2301 65.5468,9.2341 C65.3618,9.2391 65.2118,9.2181 65.0978,9.1701 C64.9848,9.1211 64.9008,9.0271 64.8468,8.8861 C64.8278,8.8341 64.8148,8.7661 64.8058,8.6821 C64.7968,8.5971 64.7908,8.5131 64.7888,8.4271 L64.7568,7.3031 L64.4738,7.3101 L64.4648,7.0271 L64.5278,7.0041 C64.6408,6.9621 64.7348,6.8911 64.8088,6.7911 C64.8828,6.6921 64.9278,6.5841 64.9448,6.4681 L64.9488,6.4281 L65.3518,6.4161 L65.3668,6.9481 L66.0348,6.9291 L66.0448,7.2661 L65.3768,7.2851 L65.4098,8.4491 C65.4118,8.5051 65.4158,8.5581 65.4238,8.6081 C65.4308,8.6581 65.4458,8.7021 65.4688,8.7381 C65.4918,8.7741 65.5258,8.8031 65.5668,8.8241 C65.6098,8.8451 65.6668,8.8541 65.7398,8.8521 C65.8118,8.8501 65.8748,8.8381 65.9298,8.8161 C65.9588,8.8061 65.9848,8.7951 66.0038,8.7821 L66.1158,9.1211 C66.0838,9.1331 66.0198,9.1541 65.9238,9.1841" id="Fill-160" fill="#FEFEFE"></path>
                <path d="M67.6113,9.1489 L67.6033,8.9139 C67.5643,8.9679 67.5113,9.0179 67.4483,9.0599 C67.3923,9.0979 67.3243,9.1319 67.2413,9.1639 C67.1583,9.1949 67.0563,9.2129 66.9393,9.2169 C66.7673,9.2219 66.6153,9.1869 66.4793,9.1119 C66.3433,9.0379 66.2543,8.9149 66.2073,8.7409 C66.1833,8.6559 66.1703,8.5679 66.1663,8.4789 C66.1623,8.3879 66.1603,8.3219 66.1583,8.2769 L66.1193,6.9219 L66.7443,6.9049 L66.7813,8.2109 C66.7843,8.2849 66.7873,8.3429 66.7913,8.3879 C66.7953,8.4319 66.8003,8.4729 66.8083,8.5109 C66.8523,8.7169 66.9973,8.8159 67.2423,8.8089 C67.2933,8.8079 67.3383,8.8029 67.3773,8.7949 C67.4163,8.7859 67.4523,8.7769 67.4843,8.7669 C67.5193,8.7539 67.5513,8.7399 67.5803,8.7239 L67.5273,6.8819 L68.1483,6.8649 L68.2133,9.1319 L67.6113,9.1489 Z" id="Fill-162" fill="#FEFEFE"></path>
                <path d="M69.8535,7.334 C69.8355,7.32 69.7945,7.299 69.7325,7.271 C69.6695,7.244 69.5865,7.231 69.4835,7.234 C69.4305,7.235 69.3825,7.241 69.3415,7.251 C69.3005,7.261 69.2655,7.271 69.2365,7.281 C69.2055,7.294 69.1765,7.308 69.1535,7.323 L69.2055,9.104 L68.5835,9.121 L68.5195,6.854 L69.1225,6.837 L69.1305,7.138 C69.1615,7.075 69.2035,7.018 69.2535,6.966 C69.2965,6.923 69.3515,6.883 69.4195,6.846 C69.4865,6.809 69.5685,6.789 69.6665,6.786 C69.7365,6.784 69.7945,6.788 69.8425,6.799 C69.8905,6.809 69.9305,6.821 69.9625,6.835 L69.8535,7.334 Z" id="Fill-164" fill="#FEFEFE"></path>
                <path d="M71.3359,7.5356 C71.3259,7.1996 71.1909,7.0346 70.9339,7.0416 C70.8219,7.0446 70.7389,7.0776 70.6839,7.1396 C70.6279,7.2026 70.5899,7.2856 70.5699,7.3896 C70.5569,7.4456 70.5499,7.4986 70.5499,7.5496 C70.5499,7.5996 70.5499,7.6356 70.5509,7.6556 L71.3379,7.6336 L71.3359,7.5356 Z M70.5549,7.9706 L70.5569,8.0146 C70.5629,8.2356 70.6329,8.4076 70.7689,8.5316 C70.9029,8.6546 71.0809,8.7136 71.3029,8.7066 C71.3789,8.7046 71.4479,8.6976 71.5079,8.6876 C71.5679,8.6766 71.6189,8.6636 71.6599,8.6476 C71.7069,8.6316 71.7479,8.6126 71.7829,8.5906 L71.9119,8.9286 C71.8619,8.9566 71.7999,8.9806 71.7239,8.9996 C71.6589,9.0196 71.5779,9.0376 71.4809,9.0546 C71.3839,9.0696 71.2699,9.0796 71.1369,9.0836 C70.9799,9.0886 70.8299,9.0746 70.6879,9.0406 C70.5449,9.0086 70.4179,8.9496 70.3079,8.8636 C70.1969,8.7776 70.1069,8.6616 70.0389,8.5146 C69.9689,8.3676 69.9319,8.1806 69.9259,7.9526 C69.9219,7.8466 69.9319,7.7246 69.9539,7.5886 C69.9769,7.4516 70.0249,7.3216 70.0989,7.1966 C70.1719,7.0716 70.2779,6.9666 70.4179,6.8796 C70.5569,6.7926 70.7419,6.7456 70.9709,6.7396 C71.1949,6.7336 71.3729,6.7656 71.5019,6.8376 C71.6309,6.9096 71.7319,7.0056 71.8079,7.1276 C71.8729,7.2386 71.9139,7.3626 71.9339,7.5006 C71.9519,7.6396 71.9629,7.7706 71.9669,7.8946 L71.9679,7.9296 L70.5549,7.9706 Z" id="Fill-166" fill="#FEFEFE"></path>
            </g>
        </g>
    </g>
</svg>